<svg width="93" height="93" viewBox="0 0 93 93" fill="none" xmlns="http://www.w3.org/2000/svg">
<rect width="93" height="93" rx="12" fill="#5B753C"/>
<rect x="4" y="4" width="85" height="85" rx="12" fill="#4D5D3A"/>
<path d="M35.1148 71.9591L12.0397 48.8603C10.6534 47.4726 10.6534 45.2226 12.0397 43.8347L17.0601 38.8091C18.4464 37.4212 20.6942 37.4212 22.0806 38.8091L37.625 54.3693L70.9194 21.0408C72.3058 19.6531 74.5536 19.6531 75.9399 21.0408L80.9603 26.0664C82.3466 27.4542 82.3466 29.7042 80.9603 31.0921L40.1352 71.9592C38.7488 73.3469 36.5011 73.3469 35.1148 71.9591Z" fill="#7E9F57"/>
<path d="M11 50L34 73" stroke="#7E9F57" stroke-linecap="round"/>
<path d="M41 73L81 33" stroke="#7E9F57" stroke-linecap="round"/>
</svg>
