<svg width="571" height="104" viewBox="0 0 571 104" fill="none" xmlns="http://www.w3.org/2000/svg">
<g filter="url(#filter0_d_215_96)">
<path d="M82.8403 88.0684C79.4483 88.0684 76.4083 87.2684 73.7203 85.6684C71.0963 84.0684 69.0163 81.8924 67.4803 79.1404C65.9443 76.3244 65.1763 73.1244 65.1763 69.5404V22.5964C65.1763 21.5084 65.4963 20.6124 66.1363 19.9084C66.8403 19.2044 67.7363 18.8524 68.8243 18.8524C69.9123 18.8524 70.8083 19.2044 71.5123 19.9084C72.2163 20.6124 72.5683 21.5084 72.5683 22.5964V69.5404C72.5683 72.8044 73.5283 75.4924 75.4483 77.6044C77.3683 79.6524 79.8323 80.6764 82.8403 80.6764H85.4323C86.4563 80.6764 87.2883 81.0284 87.9283 81.7324C88.5683 82.4364 88.8883 83.3324 88.8883 84.4204C88.8883 85.5084 88.5043 86.4044 87.7363 87.1084C86.9683 87.7484 86.0083 88.0684 84.8563 88.0684H82.8403ZM58.9363 43.9084C57.9763 43.9084 57.1763 43.6204 56.5363 43.0444C55.8963 42.4044 55.5763 41.6364 55.5763 40.7404C55.5763 39.7804 55.8963 39.0124 56.5363 38.4364C57.1763 37.7964 57.9763 37.4764 58.9363 37.4764H83.4163C84.3763 37.4764 85.1763 37.7964 85.8163 38.4364C86.4563 39.0124 86.7763 39.7804 86.7763 40.7404C86.7763 41.6364 86.4563 42.4044 85.8163 43.0444C85.1763 43.6204 84.3763 43.9084 83.4163 43.9084H58.9363ZM103.993 55.7164C104.185 51.7484 105.209 48.1964 107.065 45.0604C108.985 41.9244 111.449 39.4604 114.457 37.6684C117.529 35.8764 120.921 34.9804 124.633 34.9804C127.577 34.9804 129.849 35.3964 131.449 36.2284C133.049 37.0604 133.657 38.2764 133.273 39.8764C133.017 40.8364 132.569 41.4764 131.929 41.7964C131.353 42.1164 130.617 42.2444 129.721 42.1804C128.889 42.1164 127.929 42.0524 126.841 41.9884C123.257 41.6684 120.057 42.0524 117.241 43.1404C114.489 44.1644 112.281 45.7644 110.617 47.9404C109.017 50.1164 108.217 52.7084 108.217 55.7164H103.993ZM104.569 88.0684C103.417 88.0684 102.521 87.7484 101.881 87.1084C101.241 86.4684 100.921 85.5724 100.921 84.4204V39.2044C100.921 38.0524 101.241 37.1564 101.881 36.5164C102.521 35.8764 103.417 35.5564 104.569 35.5564C105.721 35.5564 106.617 35.8764 107.257 36.5164C107.897 37.1564 108.217 38.0524 108.217 39.2044V84.4204C108.217 85.5724 107.897 86.4684 107.257 87.1084C106.617 87.7484 105.721 88.0684 104.569 88.0684ZM150.17 88.0684C149.018 88.0684 148.09 87.7484 147.386 87.1084C146.746 86.4044 146.426 85.4764 146.426 84.3244V39.3004C146.426 38.1484 146.746 37.2524 147.386 36.6124C148.09 35.9084 149.018 35.5564 150.17 35.5564C151.258 35.5564 152.122 35.9084 152.762 36.6124C153.466 37.2524 153.818 38.1484 153.818 39.3004V84.3244C153.818 85.4764 153.466 86.4044 152.762 87.1084C152.122 87.7484 151.258 88.0684 150.17 88.0684ZM150.074 25.5724C148.666 25.5724 147.45 25.0604 146.426 24.0364C145.402 23.0124 144.89 21.7644 144.89 20.2924C144.89 18.6924 145.402 17.4444 146.426 16.5484C147.514 15.5884 148.762 15.1084 150.17 15.1084C151.514 15.1084 152.698 15.5884 153.722 16.5484C154.81 17.4444 155.354 18.6924 155.354 20.2924C155.354 21.7644 154.842 23.0124 153.818 24.0364C152.794 25.0604 151.546 25.5724 150.074 25.5724ZM190.592 88.0684C189.056 88.0684 187.904 87.2364 187.136 85.5724L165.824 40.3564C165.44 39.5244 165.408 38.6924 165.728 37.8604C166.048 37.0284 166.688 36.3884 167.648 35.9404C168.544 35.4924 169.408 35.4284 170.24 35.7484C171.072 36.0684 171.712 36.6444 172.16 37.4764L192.608 81.7324H188.672L208.832 37.4764C209.216 36.5804 209.856 36.0044 210.752 35.7484C211.712 35.4284 212.64 35.4604 213.536 35.8444C214.432 36.2924 215.04 36.9644 215.36 37.8604C215.68 38.6924 215.648 39.4924 215.264 40.2604L194.24 85.5724C193.472 87.2364 192.256 88.0684 190.592 88.0684ZM230.983 88.0684C229.831 88.0684 228.903 87.7484 228.199 87.1084C227.559 86.4044 227.239 85.4764 227.239 84.3244V39.3004C227.239 38.1484 227.559 37.2524 228.199 36.6124C228.903 35.9084 229.831 35.5564 230.983 35.5564C232.071 35.5564 232.935 35.9084 233.575 36.6124C234.279 37.2524 234.631 38.1484 234.631 39.3004V84.3244C234.631 85.4764 234.279 86.4044 233.575 87.1084C232.935 87.7484 232.071 88.0684 230.983 88.0684ZM230.887 25.5724C229.479 25.5724 228.263 25.0604 227.239 24.0364C226.215 23.0124 225.703 21.7644 225.703 20.2924C225.703 18.6924 226.215 17.4444 227.239 16.5484C228.327 15.5884 229.575 15.1084 230.983 15.1084C232.327 15.1084 233.511 15.5884 234.535 16.5484C235.623 17.4444 236.167 18.6924 236.167 20.2924C236.167 21.7644 235.655 23.0124 234.631 24.0364C233.607 25.0604 232.359 25.5724 230.887 25.5724ZM330.247 88.0684C326.855 88.0684 323.815 87.2684 321.127 85.6684C318.503 84.0684 316.423 81.8924 314.887 79.1404C313.351 76.3244 312.583 73.1244 312.583 69.5404V22.5964C312.583 21.5084 312.903 20.6124 313.543 19.9084C314.247 19.2044 315.143 18.8524 316.231 18.8524C317.319 18.8524 318.215 19.2044 318.919 19.9084C319.623 20.6124 319.975 21.5084 319.975 22.5964V69.5404C319.975 72.8044 320.935 75.4924 322.855 77.6044C324.775 79.6524 327.239 80.6764 330.247 80.6764H332.839C333.863 80.6764 334.695 81.0284 335.335 81.7324C335.975 82.4364 336.295 83.3324 336.295 84.4204C336.295 85.5084 335.911 86.4044 335.143 87.1084C334.375 87.7484 333.415 88.0684 332.263 88.0684H330.247ZM306.343 43.9084C305.383 43.9084 304.583 43.6204 303.943 43.0444C303.303 42.4044 302.983 41.6364 302.983 40.7404C302.983 39.7804 303.303 39.0124 303.943 38.4364C304.583 37.7964 305.383 37.4764 306.343 37.4764H330.823C331.783 37.4764 332.583 37.7964 333.223 38.4364C333.863 39.0124 334.183 39.7804 334.183 40.7404C334.183 41.6364 333.863 42.4044 333.223 43.0444C332.583 43.6204 331.783 43.9084 330.823 43.9084H306.343ZM353.608 88.0684C352.456 88.0684 351.528 87.7484 350.824 87.1084C350.184 86.4044 349.864 85.4764 349.864 84.3244V39.3004C349.864 38.1484 350.184 37.2524 350.824 36.6124C351.528 35.9084 352.456 35.5564 353.608 35.5564C354.696 35.5564 355.56 35.9084 356.2 36.6124C356.904 37.2524 357.256 38.1484 357.256 39.3004V84.3244C357.256 85.4764 356.904 86.4044 356.2 87.1084C355.56 87.7484 354.696 88.0684 353.608 88.0684ZM353.512 25.5724C352.104 25.5724 350.888 25.0604 349.864 24.0364C348.84 23.0124 348.328 21.7644 348.328 20.2924C348.328 18.6924 348.84 17.4444 349.864 16.5484C350.952 15.5884 352.2 15.1084 353.608 15.1084C354.952 15.1084 356.136 15.5884 357.16 16.5484C358.248 17.4444 358.792 18.6924 358.792 20.2924C358.792 21.7644 358.28 23.0124 357.256 24.0364C356.232 25.0604 354.984 25.5724 353.512 25.5724ZM447.022 88.0684C445.934 88.0684 445.038 87.7484 444.334 87.1084C443.63 86.4044 443.278 85.5084 443.278 84.4204V56.7724C443.278 52.2284 442.094 48.6444 439.726 46.0204C437.358 43.3324 434.318 41.9884 430.606 41.9884C426.638 41.9884 423.374 43.3324 420.814 46.0204C418.318 48.6444 417.102 52.1644 417.166 56.5804H410.542C410.606 52.2924 411.534 48.5164 413.326 45.2524C415.118 41.9884 417.582 39.4604 420.718 37.6684C423.854 35.8764 427.406 34.9804 431.374 34.9804C435.15 34.9804 438.478 35.8764 441.358 37.6684C444.302 39.4604 446.574 41.9884 448.174 45.2524C449.838 48.5164 450.67 52.3564 450.67 56.7724V84.4204C450.67 85.5084 450.318 86.4044 449.614 87.1084C448.974 87.7484 448.11 88.0684 447.022 88.0684ZM379.822 88.0684C378.67 88.0684 377.742 87.7484 377.038 87.1084C376.398 86.4044 376.078 85.5084 376.078 84.4204V39.3004C376.078 38.2124 376.398 37.3164 377.038 36.6124C377.742 35.9084 378.67 35.5564 379.822 35.5564C380.91 35.5564 381.774 35.9084 382.414 36.6124C383.118 37.3164 383.47 38.2124 383.47 39.3004V84.4204C383.47 85.5084 383.118 86.4044 382.414 87.1084C381.774 87.7484 380.91 88.0684 379.822 88.0684ZM413.518 88.0684C412.43 88.0684 411.534 87.7484 410.83 87.1084C410.126 86.4044 409.774 85.5084 409.774 84.4204V56.7724C409.774 52.2284 408.59 48.6444 406.222 46.0204C403.854 43.3324 400.814 41.9884 397.102 41.9884C393.134 41.9884 389.87 43.3004 387.31 45.9244C384.75 48.4844 383.47 51.8444 383.47 56.0044H378.19C378.318 51.9084 379.214 48.2924 380.878 45.1564C382.606 41.9564 384.942 39.4604 387.886 37.6684C390.83 35.8764 394.158 34.9804 397.87 34.9804C401.646 34.9804 404.974 35.8764 407.854 37.6684C410.798 39.4604 413.07 41.9884 414.67 45.2524C416.334 48.5164 417.166 52.3564 417.166 56.7724V84.4204C417.166 85.5084 416.814 86.4044 416.11 87.1084C415.47 87.7484 414.606 88.0684 413.518 88.0684ZM490.823 88.5484C485.639 88.5484 481.031 87.4284 476.999 85.1884C473.031 82.8844 469.895 79.7164 467.591 75.6844C465.351 71.6524 464.231 67.0444 464.231 61.8604C464.231 56.6124 465.287 52.0044 467.399 48.0364C469.575 44.0044 472.551 40.8364 476.327 38.5324C480.103 36.2284 484.455 35.0764 489.383 35.0764C494.247 35.0764 498.471 36.1964 502.055 38.4364C505.703 40.6124 508.519 43.6524 510.503 47.5564C512.487 51.4604 513.479 55.9084 513.479 60.9004C513.479 61.9244 513.159 62.7564 512.519 63.3964C511.879 63.9724 511.047 64.2604 510.023 64.2604H469.223V58.1164H510.791L506.663 61.0924C506.727 57.3804 506.055 54.0524 504.647 51.1084C503.239 48.1644 501.223 45.8604 498.599 44.1964C496.039 42.5324 492.967 41.7004 489.383 41.7004C485.735 41.7004 482.535 42.5644 479.783 44.2924C477.031 46.0204 474.887 48.4204 473.351 51.4924C471.879 54.5004 471.143 57.9564 471.143 61.8604C471.143 65.7644 471.975 69.2204 473.639 72.2284C475.367 75.2364 477.703 77.6044 480.647 79.3324C483.591 81.0604 486.983 81.9244 490.823 81.9244C493.127 81.9244 495.431 81.5404 497.735 80.7724C500.103 79.9404 501.991 78.9164 503.399 77.7004C504.103 77.1244 504.903 76.8364 505.799 76.8364C506.695 76.7724 507.463 76.9964 508.103 77.5084C508.935 78.2764 509.351 79.1084 509.351 80.0044C509.415 80.9004 509.063 81.6684 508.295 82.3084C506.183 84.1004 503.495 85.6044 500.231 86.8204C496.967 87.9724 493.831 88.5484 490.823 88.5484Z" fill="white"/>
</g>
<g filter="url(#filter1_d_215_96)">
<path d="M272.97 1.15963C257.946 0.634979 247.999 6.48347 239.974 17.253C238.518 19.2066 238.849 21.9665 240.731 23.5077L248.635 29.9807C250.535 31.5372 253.325 31.2862 254.921 29.4144C259.843 23.6408 263.46 20.344 270.825 20.6012C276.615 20.8034 283.647 24.8 283.45 30.4451C283.301 34.7125 279.72 36.7818 273.89 39.8047C267.091 43.3299 258.105 47.6988 257.696 59.3985L257.631 61.2507C257.544 63.7589 259.495 65.8628 261.99 65.9499L275.631 66.4262C278.126 66.5133 280.219 64.5507 280.307 62.0425L280.345 60.9501C280.628 52.8398 304.219 53.3254 304.985 31.3784C305.562 14.8505 288.947 1.71754 272.97 1.15963ZM268.616 71.7625C261.427 71.5115 255.372 77.1874 255.12 84.4152C254.867 91.6427 260.511 97.7272 267.701 97.9783C274.89 98.2293 280.944 92.5534 281.197 85.3256C281.449 78.0979 275.805 72.0136 268.616 71.7625Z" fill="white"/>
</g>
<path d="M267.621 91.1364C266.555 91.0991 265.61 90.826 264.787 90.317C263.965 89.808 263.328 89.1253 262.878 88.2691C262.427 87.4129 262.221 86.4517 262.258 85.3857C262.296 84.3064 262.569 83.3553 263.078 82.5326C263.587 81.7099 264.27 81.0733 265.126 80.6229C265.982 80.1725 266.943 79.9659 268.009 80.0032C269.075 80.0404 270.013 80.3133 270.823 80.8218C271.645 81.3309 272.282 82.0135 272.732 82.8697C273.183 83.726 273.396 84.694 273.371 85.7738C273.334 86.8398 273.054 87.784 272.532 88.6062C272.023 89.429 271.34 90.0655 270.484 90.5159C269.641 90.9668 268.687 91.1736 267.621 91.1364ZM267.669 89.7372C268.442 89.7642 269.142 89.6085 269.767 89.2701C270.393 88.9318 270.89 88.4555 271.258 87.8413C271.626 87.2271 271.824 86.5203 271.852 85.7207C271.88 84.9212 271.732 84.2023 271.407 83.5639C271.083 82.9122 270.621 82.3957 270.02 82.0146C269.42 81.6334 268.733 81.4293 267.961 81.4023C267.188 81.3753 266.488 81.531 265.863 81.8694C265.237 82.2078 264.734 82.6905 264.352 83.3175C263.983 83.9317 263.785 84.6385 263.757 85.4381C263.729 86.2376 263.878 86.9565 264.202 87.5949C264.54 88.2338 265.009 88.7438 265.61 89.125C266.21 89.5061 266.897 89.7102 267.669 89.7372Z" fill="#CFCFCF"/>
<circle cx="266.955" cy="84.1916" r="1.48383" fill="#D9D9D9"/>
<defs>
<filter id="filter0_d_215_96" x="55.5762" y="15.1084" width="461.903" height="77.4399" filterUnits="userSpaceOnUse" color-interpolation-filters="sRGB">
<feFlood flood-opacity="0" result="BackgroundImageFix"/>
<feColorMatrix in="SourceAlpha" type="matrix" values="0 0 0 0 0 0 0 0 0 0 0 0 0 0 0 0 0 0 127 0" result="hardAlpha"/>
<feOffset dx="4" dy="4"/>
<feComposite in2="hardAlpha" operator="out"/>
<feColorMatrix type="matrix" values="0 0 0 0 0 0 0 0 0 0 0 0 0 0 0 0 0 0 1 0"/>
<feBlend mode="normal" in2="BackgroundImageFix" result="effect1_dropShadow_215_96"/>
<feBlend mode="normal" in="SourceGraphic" in2="effect1_dropShadow_215_96" result="shape"/>
</filter>
<filter id="filter1_d_215_96" x="239.068" y="1.1272" width="69.9316" height="100.859" filterUnits="userSpaceOnUse" color-interpolation-filters="sRGB">
<feFlood flood-opacity="0" result="BackgroundImageFix"/>
<feColorMatrix in="SourceAlpha" type="matrix" values="0 0 0 0 0 0 0 0 0 0 0 0 0 0 0 0 0 0 127 0" result="hardAlpha"/>
<feOffset dx="4" dy="4"/>
<feComposite in2="hardAlpha" operator="out"/>
<feColorMatrix type="matrix" values="0 0 0 0 0 0 0 0 0 0 0 0 0 0 0 0 0 0 1 0"/>
<feBlend mode="normal" in2="BackgroundImageFix" result="effect1_dropShadow_215_96"/>
<feBlend mode="normal" in="SourceGraphic" in2="effect1_dropShadow_215_96" result="shape"/>
</filter>
</defs>
</svg>
