<svg width="97" height="86" viewBox="0 0 97 86" fill="none" xmlns="http://www.w3.org/2000/svg">
<g filter="url(#filter0_d_218_9)">
<path d="M75.3833 22.0979C66.2769 20.3857 59.6734 23.0277 53.7849 28.8465C52.7167 29.9021 52.6629 31.6145 53.6668 32.7281L57.883 37.405C58.8968 38.5296 60.6203 38.6353 61.7662 37.6426C65.3007 34.5806 67.8103 32.9068 72.2742 33.7461C75.784 34.406 79.6984 37.4931 79.0551 40.9147C78.5687 43.5014 76.195 44.4304 72.3622 45.7322C67.8926 47.2502 62.0115 49.0795 60.6782 56.1711L60.4671 57.2938C60.1813 58.8141 61.1755 60.277 62.6877 60.5613L70.9559 62.1158C72.4681 62.4001 73.9257 61.3982 74.2115 59.8779L74.336 59.2158C75.2603 54.2999 89.5904 56.7822 92.0916 43.4794C93.9752 33.4614 85.0673 23.9186 75.3833 22.0979ZM66.1866 64.7174C61.8288 63.8981 57.6134 66.7957 56.7897 71.1767C55.9661 75.5575 58.8413 79.7883 63.199 80.6076C67.5567 81.4269 71.7722 78.5293 72.5958 74.1483C73.4195 69.7674 70.5443 65.5367 66.1866 64.7174Z" fill="white"/>
</g>
<g filter="url(#filter1_d_218_9)">
<path d="M48.1667 7.35531C37.3821 5.32766 29.5618 8.45648 22.5882 15.3476C21.3231 16.5976 21.2594 18.6257 22.4482 19.9445L27.4414 25.4833C28.6421 26.8151 30.6832 26.9402 32.0402 25.7646C36.2261 22.1383 39.1981 20.1561 44.4846 21.1501C48.6412 21.9316 53.2769 25.5875 52.5151 29.6397C51.9391 32.703 49.1279 33.8033 44.5888 35.3449C39.2955 37.1427 32.3308 39.3091 30.7518 47.7075L30.5018 49.037C30.1633 50.8375 31.3406 52.57 33.1316 52.9067L42.9233 54.7477C44.7143 55.0844 46.4405 53.8978 46.779 52.0974L46.9264 51.3132C48.021 45.4914 64.9919 48.4312 67.9539 32.677C70.1847 20.8129 59.6352 9.51155 48.1667 7.35531ZM37.2752 57.8287C32.1144 56.8584 27.1222 60.29 26.1467 65.4783C25.1713 70.6664 28.5763 75.6768 33.7371 76.6471C38.8978 77.6174 43.8901 74.1858 44.8655 68.9975C45.841 63.8093 42.436 58.799 37.2752 57.8287Z" fill="white"/>
</g>
<g filter="url(#filter2_d_218_9)">
<path d="M29.841 68.2128C30.3151 75.1781 25.0488 81.2295 18.1016 81.7023C11.1544 82.1751 5.11673 76.8931 4.64266 69.9278C4.1686 62.9625 9.43491 56.9111 16.3821 56.4383C23.3293 55.9655 29.367 61.2475 29.841 68.2128ZM1.72917 5.59469L6.79419 48.3977C7.03209 50.4077 8.80012 51.8781 10.8143 51.7411L21.2621 51.03C23.2763 50.8929 24.8288 49.1964 24.7921 47.1727L24.0108 4.07817C23.9714 1.90617 22.1267 0.209051 19.965 0.35618L5.23339 1.35883C3.07168 1.50596 1.47396 3.43738 1.72917 5.59469Z" fill="white"/>
</g>
<defs>
<filter id="filter0_d_218_9" x="52.9473" y="21.5836" width="43.3979" height="63.1626" filterUnits="userSpaceOnUse" color-interpolation-filters="sRGB">
<feFlood flood-opacity="0" result="BackgroundImageFix"/>
<feColorMatrix in="SourceAlpha" type="matrix" values="0 0 0 0 0 0 0 0 0 0 0 0 0 0 0 0 0 0 127 0" result="hardAlpha"/>
<feOffset dx="4" dy="4"/>
<feComposite in2="hardAlpha" operator="out"/>
<feColorMatrix type="matrix" values="0 0 0 0 0 0 0 0 0 0 0 0 0 0 0 0 0 0 1 0"/>
<feBlend mode="normal" in2="BackgroundImageFix" result="effect1_dropShadow_218_9"/>
<feBlend mode="normal" in="SourceGraphic" in2="effect1_dropShadow_218_9" result="shape"/>
</filter>
<filter id="filter1_d_218_9" x="21.5962" y="6.74628" width="50.6582" height="74.065" filterUnits="userSpaceOnUse" color-interpolation-filters="sRGB">
<feFlood flood-opacity="0" result="BackgroundImageFix"/>
<feColorMatrix in="SourceAlpha" type="matrix" values="0 0 0 0 0 0 0 0 0 0 0 0 0 0 0 0 0 0 127 0" result="hardAlpha"/>
<feOffset dx="4" dy="4"/>
<feComposite in2="hardAlpha" operator="out"/>
<feColorMatrix type="matrix" values="0 0 0 0 0 0 0 0 0 0 0 0 0 0 0 0 0 0 1 0"/>
<feBlend mode="normal" in2="BackgroundImageFix" result="effect1_dropShadow_218_9"/>
<feBlend mode="normal" in="SourceGraphic" in2="effect1_dropShadow_218_9" result="shape"/>
</filter>
<filter id="filter2_d_218_9" x="1.70215" y="0.34729" width="32.1685" height="85.3844" filterUnits="userSpaceOnUse" color-interpolation-filters="sRGB">
<feFlood flood-opacity="0" result="BackgroundImageFix"/>
<feColorMatrix in="SourceAlpha" type="matrix" values="0 0 0 0 0 0 0 0 0 0 0 0 0 0 0 0 0 0 127 0" result="hardAlpha"/>
<feOffset dx="4" dy="4"/>
<feComposite in2="hardAlpha" operator="out"/>
<feColorMatrix type="matrix" values="0 0 0 0 0 0 0 0 0 0 0 0 0 0 0 0 0 0 1 0"/>
<feBlend mode="normal" in2="BackgroundImageFix" result="effect1_dropShadow_218_9"/>
<feBlend mode="normal" in="SourceGraphic" in2="effect1_dropShadow_218_9" result="shape"/>
</filter>
</defs>
</svg>
