<svg width="290" height="226" viewBox="0 0 290 226" fill="none" xmlns="http://www.w3.org/2000/svg">
<path d="M155.573 37.3304C161.312 33.7991 165.139 27.3924 165.139 20.1786C165.139 9.02991 156.127 0 145 0C133.873 0 124.861 9.02991 124.861 20.1786C124.861 27.4429 128.687 33.7991 134.427 37.3304L105.578 95.142C100.997 104.323 89.1146 106.946 81.1094 100.54L36.25 64.5714C38.7674 61.1915 40.2778 57.0045 40.2778 52.4643C40.2778 41.3156 31.2656 32.2857 20.1389 32.2857C9.01215 32.2857 0 41.3156 0 52.4643C0 63.6129 9.01215 72.6429 20.1389 72.6429C20.2396 72.6429 20.3906 72.6429 20.4913 72.6429L43.5 199.465C46.2691 214.801 59.6111 226 75.2187 226H214.781C230.339 226 243.681 214.851 246.5 199.465L269.509 72.6429C269.609 72.6429 269.76 72.6429 269.861 72.6429C280.988 72.6429 290 63.6129 290 52.4643C290 41.3156 280.988 32.2857 269.861 32.2857C258.734 32.2857 249.722 41.3156 249.722 52.4643C249.722 57.0045 251.233 61.1915 253.75 64.5714L208.891 100.54C200.885 106.946 189.003 104.323 184.422 95.142L155.573 37.3304Z" fill="white"/>
</svg>
