<svg width="291" height="193" viewBox="0 0 291 193" fill="none" xmlns="http://www.w3.org/2000/svg">
<path d="M32.3333 0C14.4995 0 0 14.4247 0 32.1667V160.833C0 178.575 14.4995 193 32.3333 193H258.667C276.501 193 291 178.575 291 160.833V32.1667C291 14.4247 276.501 0 258.667 0H32.3333ZM56.5833 80.4167H137.417C141.862 80.4167 145.5 84.0354 145.5 88.4583C145.5 92.8813 141.862 96.5 137.417 96.5H56.5833C52.1375 96.5 48.5 92.8813 48.5 88.4583C48.5 84.0354 52.1375 80.4167 56.5833 80.4167ZM48.5 136.708C48.5 132.285 52.1375 128.667 56.5833 128.667H234.417C238.862 128.667 242.5 132.285 242.5 136.708C242.5 141.131 238.862 144.75 234.417 144.75H56.5833C52.1375 144.75 48.5 141.131 48.5 136.708ZM189.958 48.25H230.375C237.094 48.25 242.5 53.6279 242.5 60.3125V84.4375C242.5 91.1221 237.094 96.5 230.375 96.5H189.958C183.239 96.5 177.833 91.1221 177.833 84.4375V60.3125C177.833 53.6279 183.239 48.25 189.958 48.25Z" fill="white"/>
</svg>
