<svg width="323" height="258" viewBox="0 0 323 258" fill="none" xmlns="http://www.w3.org/2000/svg">
<path d="M106.894 0C110.83 0 114.111 2.87227 115.322 6.65156C121.529 26.1527 139.849 40.3125 161.5 40.3125C183.151 40.3125 201.471 26.1527 207.678 6.65156C208.889 2.87227 212.17 0 216.106 0H222.465C233.82 0 244.772 3.98086 253.503 11.2371L317.193 64.1977C320.524 66.9691 322.593 71.0004 322.947 75.334C323.3 79.6676 321.887 83.9508 319.01 87.2262L290.748 119.476C284.995 126.077 275.002 126.833 268.24 121.24L242.249 99.6223V225.75C242.249 243.538 227.764 258 209.949 258H113.051C95.2357 258 80.7514 243.538 80.7514 225.75V99.6223L54.7605 121.24C48.0482 126.833 38.0556 126.077 32.2518 119.476L3.98979 87.2262C1.11312 83.9508 -0.299977 79.6676 0.053298 75.334C0.406573 71.0004 2.47576 66.9691 5.80663 64.1977L69.4971 11.2371C78.228 3.98086 89.1796 0 100.535 0H106.894Z" fill="white"/>
</svg>
