<svg width="258" height="258" viewBox="0 0 258 258" fill="none" xmlns="http://www.w3.org/2000/svg">
<path d="M177.375 161.25C221.92 161.25 258 125.17 258 80.625C258 72.9152 256.891 65.4574 254.876 58.3523C253.314 52.9102 246.612 51.7008 242.631 55.6816L203.931 94.3816C202.419 95.8934 200.353 96.75 198.237 96.75H169.312C164.878 96.75 161.25 93.1219 161.25 88.6875V59.7633C161.25 57.6469 162.107 55.5809 163.618 54.0691L202.318 15.3691C206.299 11.3883 205.039 4.68633 199.648 3.12422C192.543 1.10859 185.085 0 177.375 0C132.83 0 96.75 36.0797 96.75 80.625C96.75 90.2496 98.4633 99.5215 101.537 108.088L10.0277 199.597C3.62812 205.997 0 214.714 0 223.785C0 242.681 15.3188 258 34.2152 258C43.2855 258 52.0031 254.372 58.4027 247.972L149.912 156.463C158.479 159.587 167.75 161.25 177.375 161.25ZM40.3125 205.594C43.52 205.594 46.5961 206.868 48.8641 209.136C51.1321 211.404 52.4062 214.48 52.4062 217.688C52.4062 220.895 51.1321 223.971 48.8641 226.239C46.5961 228.507 43.52 229.781 40.3125 229.781C37.105 229.781 34.0289 228.507 31.7609 226.239C29.4929 223.971 28.2188 220.895 28.2188 217.688C28.2188 214.48 29.4929 211.404 31.7609 209.136C34.0289 206.868 37.105 205.594 40.3125 205.594Z" fill="white"/>
</svg>
