<svg width="322" height="225" viewBox="0 0 322 225" fill="none" xmlns="http://www.w3.org/2000/svg">
<path d="M32.2 64.2857C32.2 28.7779 61.0291 0 96.6 0H225.4C260.971 0 289.8 28.7779 289.8 64.2857V81.1607C271.436 84.8772 257.6 101.099 257.6 120.536V144.643H64.4V120.536C64.4 101.099 50.5641 84.8772 32.2 81.1607V64.2857ZM273.7 120.536C273.7 110.039 280.442 101.099 289.8 97.7846C292.316 96.8806 295.033 96.4286 297.85 96.4286C311.183 96.4286 322 107.227 322 120.536V208.929C322 217.818 314.805 225 305.9 225H289.8C280.895 225 273.7 217.818 273.7 208.929H48.3C48.3 217.818 41.1053 225 32.2 225H16.1C7.19469 225 0 217.818 0 208.929V120.536C0 107.227 10.8172 96.4286 24.15 96.4286C26.9675 96.4286 29.6844 96.9308 32.2 97.7846C41.5581 101.099 48.3 110.039 48.3 120.536V144.643V160.714H64.4H257.6H273.7V144.643V120.536Z" fill="white"/>
</svg>
