<svg width="322" height="226" viewBox="0 0 322 226" fill="none" xmlns="http://www.w3.org/2000/svg">
<path d="M322 134.843V137.214V201.786C322 215.154 311.183 226 297.85 226H257.6H225.4H32.2C23.2947 226 16.1 218.786 16.1 209.857C16.1 200.928 23.2947 193.714 32.2 193.714H225.4V169.5H48.3C39.3947 169.5 32.2 162.286 32.2 153.357V94.5366L17.0056 91.8125C7.14437 90.0469 0 81.471 0 71.4826C0 66.9929 1.45906 62.6545 4.12563 59.0728L22.0369 35.1107C38.5897 13.0152 64.5006 0 92.0216 0C105.606 0 118.989 3.17813 131.165 9.28214L295.284 91.5603C311.686 99.7326 322 116.531 322 134.843ZM225.4 137.214V129.143L64.4 100.338V137.214H225.4Z" fill="white"/>
</svg>
