<svg width="258" height="258" viewBox="0 0 258 258" fill="none" xmlns="http://www.w3.org/2000/svg">
<path d="M105.064 31.3995L119.224 12.8017C125.372 4.73764 134.946 0 145.125 0C159.486 0 172.134 9.42489 176.266 23.1842L185.236 53.1221C190.426 70.4599 203.427 84.3704 220.409 90.7208L240.464 98.2305C250.996 102.212 258 112.292 258 123.532C258 132.049 254.019 140.063 247.166 145.153L213.253 170.606C201.008 179.778 194.508 194.747 196.221 209.968L197.481 221.409C199.648 240.914 184.379 258 164.727 258C157.269 258 149.963 255.43 144.168 250.793L116.251 228.465C113.984 226.651 111.565 225.089 108.945 223.828C100.983 219.847 91.9629 218.587 83.2453 220.149L41.5219 227.76C24.0867 230.935 8.0625 217.528 8.0625 199.838C8.0625 193.185 10.4309 186.734 14.6637 181.593L20.3074 174.839C27.6645 166.07 31.6957 154.981 31.6957 143.541C31.6957 134.065 28.9242 124.792 23.734 116.828L4.43438 87.4448C1.56211 83.0096 0 77.8183 0 72.5263C0 55.6925 15.1676 42.8908 31.7461 45.7132L57.5965 50.0981C75.6867 53.1725 93.9785 45.9652 105.064 31.3995Z" fill="white"/>
</svg>
