<svg width="291" height="178" viewBox="0 0 291 178" fill="none" xmlns="http://www.w3.org/2000/svg">
<path d="M91.2024 31.0994C111.004 14.4119 137.726 0 169.752 0C201.779 0 228.501 14.4119 248.303 31.0994C268.054 47.7869 282.097 67.7108 289.219 81.5665C291.594 86.2188 291.594 91.7307 289.219 96.383C282.097 110.239 268.054 130.162 248.303 146.85C228.501 163.588 201.779 178 169.752 178C137.726 178 111.004 163.588 91.2024 146.901C83.019 139.973 75.7954 132.489 69.6327 125.106L24.3211 151.502C18.0068 155.194 9.97498 154.182 4.77198 149.024C-0.431017 143.866 -1.49182 135.877 2.14522 129.505L25.2809 89L2.14522 48.4949C-1.49182 42.1233 -0.380502 34.1335 4.8225 28.9756C10.0255 23.8176 18.0068 22.8062 24.3716 26.4977L69.6832 52.9449C75.8459 45.5619 83.0695 38.0778 91.2529 31.15L91.2024 31.0994ZM226.329 89C226.329 84.7083 224.626 80.5924 221.594 77.5577C218.563 74.523 214.451 72.8182 210.164 72.8182C205.877 72.8182 201.765 74.523 198.734 77.5577C195.703 80.5924 193.999 84.7083 193.999 89C193.999 93.2917 195.703 97.4076 198.734 100.442C201.765 103.477 205.877 105.182 210.164 105.182C214.451 105.182 218.563 103.477 221.594 100.442C224.626 97.4076 226.329 93.2917 226.329 89Z" fill="white"/>
</svg>
