<svg width="258" height="258" viewBox="0 0 258 258" fill="none" xmlns="http://www.w3.org/2000/svg">
<path d="M88.6875 12.0938C88.6875 5.3918 83.2957 0 76.5938 0C69.8918 0 64.5 5.3918 64.5 12.0938V32.25C46.7121 32.25 32.25 46.7121 32.25 64.5H12.0938C5.3918 64.5 0 69.8918 0 76.5938C0 83.2957 5.3918 88.6875 12.0938 88.6875H32.25V116.906H12.0938C5.3918 116.906 0 122.298 0 129C0 135.702 5.3918 141.094 12.0938 141.094H32.25V169.312H12.0938C5.3918 169.312 0 174.704 0 181.406C0 188.108 5.3918 193.5 12.0938 193.5H32.25C32.25 211.288 46.7121 225.75 64.5 225.75V245.906C64.5 252.608 69.8918 258 76.5938 258C83.2957 258 88.6875 252.608 88.6875 245.906V225.75H116.906V245.906C116.906 252.608 122.298 258 129 258C135.702 258 141.094 252.608 141.094 245.906V225.75H169.312V245.906C169.312 252.608 174.704 258 181.406 258C188.108 258 193.5 252.608 193.5 245.906V225.75C211.288 225.75 225.75 211.288 225.75 193.5H245.906C252.608 193.5 258 188.108 258 181.406C258 174.704 252.608 169.312 245.906 169.312H225.75V141.094H245.906C252.608 141.094 258 135.702 258 129C258 122.298 252.608 116.906 245.906 116.906H225.75V88.6875H245.906C252.608 88.6875 258 83.2957 258 76.5938C258 69.8918 252.608 64.5 245.906 64.5H225.75C225.75 46.7121 211.288 32.25 193.5 32.25V12.0938C193.5 5.3918 188.108 0 181.406 0C174.704 0 169.312 5.3918 169.312 12.0938V32.25H141.094V12.0938C141.094 5.3918 135.702 0 129 0C122.298 0 116.906 5.3918 116.906 12.0938V32.25H88.6875V12.0938ZM80.625 64.5H177.375C186.294 64.5 193.5 71.7059 193.5 80.625V177.375C193.5 186.294 186.294 193.5 177.375 193.5H80.625C71.7059 193.5 64.5 186.294 64.5 177.375V80.625C64.5 71.7059 71.7059 64.5 80.625 64.5ZM177.375 80.625H80.625C80.625 118.408 80.625 139.592 80.625 177.375H177.375V80.625Z" fill="white"/>
</svg>
