<svg width="226" height="226" viewBox="0 0 226 226" fill="none" xmlns="http://www.w3.org/2000/svg">
<path d="M32.2857 0C14.4781 0 0 14.4781 0 32.2857V193.714C0 211.522 14.4781 226 32.2857 226H193.714C211.522 226 226 211.522 226 193.714V71.2808C226 62.7049 222.62 54.4821 216.567 48.4286L177.571 9.43348C171.518 3.37991 163.295 0 154.719 0H32.2857ZM32.2857 48.4286C32.2857 39.4996 39.4996 32.2857 48.4286 32.2857H145.286C154.215 32.2857 161.429 39.4996 161.429 48.4286V80.7143C161.429 89.6433 154.215 96.8571 145.286 96.8571H48.4286C39.4996 96.8571 32.2857 89.6433 32.2857 80.7143V48.4286ZM113 129.143C121.563 129.143 129.775 132.544 135.829 138.599C141.884 144.654 145.286 152.866 145.286 161.429C145.286 169.991 141.884 178.203 135.829 184.258C129.775 190.313 121.563 193.714 113 193.714C104.437 193.714 96.2253 190.313 90.1705 184.258C84.1158 178.203 80.7143 169.991 80.7143 161.429C80.7143 152.866 84.1158 144.654 90.1705 138.599C96.2253 132.544 104.437 129.143 113 129.143Z" fill="white"/>
</svg>
