<svg width="194" height="258" viewBox="0 0 194 258" fill="none" xmlns="http://www.w3.org/2000/svg">
<path d="M20.2589 235.375L14.6005 239.91C12.9839 241.17 11.0135 241.875 8.99271 241.875C4.04167 241.875 0 237.844 0 232.905V96.75C0 43.3359 43.4479 0 97 0C150.552 0 194 43.3359 194 96.75V232.905C194 237.844 189.958 241.875 185.007 241.875C182.986 241.875 181.016 241.17 179.399 239.91L173.741 235.375C166.971 229.983 157.17 230.839 151.461 237.34L136.053 254.977C134.385 256.891 131.91 258 129.333 258C126.757 258 124.332 256.891 122.614 254.977L109.176 239.607C102.759 232.25 91.2911 232.25 84.8245 239.607L71.3859 254.977C69.7187 256.891 67.2432 258 64.6667 258C62.0901 258 59.6651 256.891 57.9474 254.977L42.5385 237.34C36.8297 230.839 27.0286 229.983 20.2589 235.375ZM80.8333 96.75C80.8333 92.4734 79.1301 88.3719 76.0982 85.3479C73.0664 82.3239 68.9543 80.625 64.6667 80.625C60.379 80.625 56.2669 82.3239 53.2351 85.3479C50.2033 88.3719 48.5 92.4734 48.5 96.75C48.5 101.027 50.2033 105.128 53.2351 108.152C56.2669 111.176 60.379 112.875 64.6667 112.875C68.9543 112.875 73.0664 111.176 76.0982 108.152C79.1301 105.128 80.8333 101.027 80.8333 96.75ZM129.333 112.875C133.621 112.875 137.733 111.176 140.765 108.152C143.797 105.128 145.5 101.027 145.5 96.75C145.5 92.4734 143.797 88.3719 140.765 85.3479C137.733 82.3239 133.621 80.625 129.333 80.625C125.046 80.625 120.934 82.3239 117.902 85.3479C114.87 88.3719 113.167 92.4734 113.167 96.75C113.167 101.027 114.87 105.128 117.902 108.152C120.934 111.176 125.046 112.875 129.333 112.875Z" fill="white"/>
</svg>
