<svg width="257" height="258" viewBox="0 0 257 258" fill="none" xmlns="http://www.w3.org/2000/svg">
<path d="M128.5 0C135.996 0 143.184 2.97304 148.484 8.26508C153.784 13.5571 156.762 20.7347 156.762 28.2188C156.762 35.7028 153.784 42.8804 148.484 48.1724C143.184 53.4645 135.996 56.4375 128.5 56.4375C121.004 56.4375 113.816 53.4645 108.516 48.1724C103.216 42.8804 100.238 35.7028 100.238 28.2188C100.238 20.7347 103.216 13.5571 108.516 8.26508C113.816 2.97304 121.004 0 128.5 0ZM66.98 72.4617C68.6455 65.9109 74.5502 60.4688 82.2212 60.4688C88.4287 60.4688 93.6269 64.0969 96.2008 69.0352C102.257 80.7258 114.47 88.6875 128.5 88.6875C142.53 88.6875 154.743 80.7258 160.799 69.0352C163.373 64.0969 168.571 60.4688 174.779 60.4688C182.5 60.4688 188.405 65.9109 190.02 72.4617C193.553 86.4703 206.271 96.8004 221.36 96.8004C226.811 96.8004 231.959 95.4398 236.4 93.0715C240.639 90.8543 245.938 90.8039 250.329 93.525C256.89 97.5563 258.959 106.123 254.972 112.673L201.022 201.562H193.098H172.71H84.3409H63.9015H55.9781L2.02824 112.673C-1.95869 106.123 0.110476 97.5563 6.67126 93.525C11.0619 90.8543 16.361 90.8543 20.6003 93.0715C25.0919 95.4398 30.1892 96.8004 35.6397 96.8004C50.7295 96.8004 63.4473 86.4703 66.98 72.4617ZM55.8267 217.688H201.173L222.067 238.549C224.187 240.666 225.398 243.588 225.398 246.612C225.398 252.911 220.301 258 213.992 258H43.0079C36.6995 258 31.6022 252.911 31.6022 246.612C31.6022 243.588 32.8135 240.666 34.9331 238.549L55.8267 217.688Z" fill="white"/>
</svg>
