<svg width="258" height="258" viewBox="0 0 258 258" fill="none" xmlns="http://www.w3.org/2000/svg">
<path d="M251.005 2.82322C256.094 6.34983 258.765 12.4458 257.808 18.5418L225.557 228.123C224.801 233.01 221.828 237.293 217.495 239.711C213.161 242.129 207.971 242.431 203.385 240.517L143.117 215.478L108.599 252.81C104.114 257.697 97.0591 259.309 90.8609 256.89C84.6628 254.472 80.6315 248.477 80.6315 241.827V199.709C80.6315 197.694 81.3874 195.779 82.7479 194.268L167.204 102.173C170.127 98.999 170.026 94.1121 167.002 91.0893C163.979 88.0665 159.091 87.865 155.916 90.7366L53.4201 181.774L8.92453 159.506C3.58304 156.835 0.156423 151.495 0.00524854 145.55C-0.145926 139.605 2.97834 134.064 8.11826 131.091L233.872 2.11789C239.264 -0.955297 245.915 -0.653016 251.005 2.82322Z" fill="white"/>
</svg>
