<svg width="226" height="258" viewBox="0 0 226 258" fill="none" xmlns="http://www.w3.org/2000/svg">
<path d="M113 0C121.929 0 129.143 7.20586 129.143 16.125V24.1875H137.214C146.143 24.1875 153.357 31.3934 153.357 40.3125C153.357 49.2316 146.143 56.4375 137.214 56.4375H129.143V80.625H205.821C216.97 80.625 226 89.6449 226 100.781C226 103.452 225.496 106.072 224.436 108.541L185.643 201.562H40.3571L1.56384 108.541C0.504464 106.072 0 103.452 0 100.781C0 89.6449 9.02991 80.625 20.1786 80.625H96.8571V56.4375H88.7857C79.8567 56.4375 72.6429 49.2316 72.6429 40.3125C72.6429 31.3934 79.8567 24.1875 88.7857 24.1875H96.8571V16.125C96.8571 7.20586 104.071 0 113 0ZM19.4723 238.549L40.3571 217.688H185.643L206.528 238.549C208.646 240.666 209.857 243.588 209.857 246.612C209.857 252.911 204.762 258 198.456 258H27.5437C21.2379 258 16.1429 252.911 16.1429 246.612C16.1429 243.588 17.3536 240.666 19.4723 238.549Z" fill="white"/>
</svg>
