<svg width="193" height="257" viewBox="0 0 193 257" fill="none" xmlns="http://www.w3.org/2000/svg">
<path d="M108.412 251.225C134.195 218.916 193 140.61 193 96.6251C193 43.28 149.776 0 96.5 0C43.224 0 0 43.28 0 96.6251C0 140.61 58.8047 218.916 84.5883 251.225C90.7703 258.925 102.23 258.925 108.412 251.225ZM96.5 64.4167C105.031 64.4167 113.213 67.8101 119.245 73.8503C125.278 79.8905 128.667 88.0829 128.667 96.6251C128.667 105.167 125.278 113.36 119.245 119.4C113.213 125.44 105.031 128.833 96.5 128.833C87.9689 128.833 79.7872 125.44 73.7547 119.4C67.7223 113.36 64.3333 105.167 64.3333 96.6251C64.3333 88.0829 67.7223 79.8905 73.7547 73.8503C79.7872 67.8101 87.9689 64.4167 96.5 64.4167Z" fill="white"/>
</svg>
