<svg width="145" height="241" viewBox="0 0 145 241" fill="none" xmlns="http://www.w3.org/2000/svg">
<path d="M100.478 96.4C115.184 87.1617 124.904 70.844 124.904 52.2167C124.904 23.3971 101.435 0 72.5252 0C43.6158 0 20.1459 23.3971 20.1459 52.2167C20.1459 70.844 29.9166 87.1617 44.5728 96.4H40.2918C31.3772 96.4 24.1751 103.58 24.1751 112.467C24.1751 120.751 30.4706 127.529 38.529 128.433L32.2334 184.767H112.817L106.521 128.433C114.58 127.529 120.875 120.751 120.875 112.467C120.875 103.58 113.673 96.4 104.759 96.4H100.478ZM3.32407 221.62C1.20875 223.728 0 226.64 0 229.653C0 235.929 5.08683 241 11.3824 241H133.618C139.913 241 145 235.929 145 229.653C145 226.64 143.791 223.728 141.676 221.62L120.875 200.833H24.1751L3.32407 221.62Z" fill="white"/>
</svg>
