<svg width="258" height="258" viewBox="0 0 258 258" fill="none" xmlns="http://www.w3.org/2000/svg">
<path d="M129 258C163.213 258 196.025 244.409 220.217 220.217C244.409 196.025 258 163.213 258 129C258 94.7871 244.409 61.9754 220.217 37.7832C196.025 13.591 163.213 0 129 0C94.7871 0 61.9754 13.591 37.7832 37.7832C13.591 61.9754 0 94.7871 0 129C0 163.213 13.591 196.025 37.7832 220.217C61.9754 244.409 94.7871 258 129 258ZM120.938 40.3125C125.214 40.3125 129.316 42.0114 132.34 45.0354C135.364 48.0594 137.062 52.1609 137.062 56.4375C137.062 60.7141 135.364 64.8156 132.34 67.8396C129.316 70.8636 125.214 72.5625 120.938 72.5625C116.661 72.5625 112.559 70.8636 109.535 67.8396C106.511 64.8156 104.812 60.7141 104.812 56.4375C104.812 52.1609 106.511 48.0594 109.535 45.0354C112.559 42.0114 116.661 40.3125 120.938 40.3125ZM104.812 104.812C104.812 100.536 106.511 96.4344 109.535 93.4104C112.559 90.3864 116.661 88.6875 120.938 88.6875C125.214 88.6875 129.316 90.3864 132.34 93.4104C135.364 96.4344 137.062 100.536 137.062 104.812C137.062 109.089 135.364 113.191 132.34 116.215C129.316 119.239 125.214 120.938 120.938 120.938C116.661 120.938 112.559 119.239 109.535 116.215C106.511 113.191 104.812 109.089 104.812 104.812ZM72.5625 72.5625C76.8391 72.5625 80.9406 74.2614 83.9646 77.2854C86.9886 80.3094 88.6875 84.4109 88.6875 88.6875C88.6875 92.9641 86.9886 97.0656 83.9646 100.09C80.9406 103.114 76.8391 104.812 72.5625 104.812C68.2859 104.812 64.1844 103.114 61.1604 100.09C58.1364 97.0656 56.4375 92.9641 56.4375 88.6875C56.4375 84.4109 58.1364 80.3094 61.1604 77.2854C64.1844 74.2614 68.2859 72.5625 72.5625 72.5625Z" fill="white"/>
</svg>
