<svg width="74" height="70" viewBox="0 0 74 70" fill="none" xmlns="http://www.w3.org/2000/svg">
<path d="M18 47.783C19.1631 46.6844 20.3275 46.2399 21.9367 46.124C23.6008 46.0042 25.3281 45.9255 26.9925 46.0977C27.6206 46.1627 27.7518 46.5699 27.8285 47.1839C27.9233 47.9423 27.9031 48.8341 27.8154 49.5802C27.7572 50.0749 27.3101 50.3102 26.8345 50.1134C26.2656 49.878 26.2229 49.0082 26.1762 48.4939" stroke="black" stroke-width="5" stroke-linecap="round"/>
<path d="M39.3291 45.4131C41.1141 44.0401 44.3043 43.7296 46.4125 44.215C47.1827 44.3923 48.3522 44.6471 48.4533 45.6237C48.5076 46.1493 49.301 48.7589 48.8746 48.9416C48.4488 49.1241 47.905 48.3039 47.8805 47.9739C47.8591 47.6845 48.0762 47.5191 48.2163 47.309" stroke="black" stroke-width="5" stroke-linecap="round"/>
<path d="M3.30212 3.65665C3.30212 6.84668 4.5194 10.7304 5.0493 13.6821C7.85171 29.2925 11.3109 44.9863 12.9948 60.7726C13.1997 62.6938 13.4812 64.6266 14.0764 66.4717C14.2573 67.0327 14.1899 67.0214 15.0124 67.0333C21.2827 67.1242 27.7488 65.4507 33.7945 64.0381C45.958 61.1962 57.9598 58.5862 70.3187 56.8207C73.3225 56.3915 64.2775 47.1174 64.2452 47.0864C60.0765 43.078 55.4937 39.5113 50.8918 36.021C36.5005 25.1055 18.9907 13.7822 4.5 3" stroke="black" stroke-width="5" stroke-linecap="round"/>
</svg>
