<svg width="77" height="69" viewBox="0 0 77 69" fill="none" xmlns="http://www.w3.org/2000/svg">
<path d="M15 47.7076C16.9025 47.7076 18.5488 46.073 19.9575 44.9488C21.355 43.8336 22.8575 42.4576 23.4216 40.6966C23.6939 39.8462 23.5875 38.8807 23.5875 38" stroke="black" stroke-width="5" stroke-linecap="round"/>
<path d="M21.1606 45.8408C21.9536 46.4546 22.6215 47.2059 23.4424 47.7906C25.6654 49.3741 28.2562 50.499 30.889 51.1924C34.0746 52.0314 37.5406 52.4197 40.8248 52.0429C42.9802 51.7955 44.4949 51.0419 46.3631 50.1345" stroke="black" stroke-width="5" stroke-linecap="round"/>
<path d="M53.3613 22.8609C52.4797 26.5949 52.1967 30.3884 51.1362 34.1002C50.8378 35.1446 50.2961 36.0827 50.2961 37.1655" stroke="black" stroke-width="5" stroke-linecap="round"/>
<path d="M28.6348 20C31.3164 20.4876 34.561 24.3034 34.561 26.9934C34.561 28.6274 33.3202 28.4794 31.9726 29.0823C30.7634 29.6232 29.5578 30.2291 28.317 30.6944C27.6882 30.9302 27.4192 30.9197 27 31.4437" stroke="black" stroke-width="5" stroke-linecap="round"/>
<path d="M5.25834 63.1781C4.93319 62.4027 5.02408 61.5596 5.02408 60.7344C5.02408 57.173 5.03964 53.6167 4.86791 50.0577C4.65469 45.6385 4.99619 40.4043 3.08496 36.2708C2.85279 35.7687 3.1386 35.8494 3.43634 35.2384C3.97795 34.1271 4.36969 32.9585 4.93298 31.8538C6.74075 28.3084 9.26376 25.203 11.9997 22.3401C17.7729 16.2993 24.6541 11.4859 30.8965 5.96575C32.1062 4.89594 33.5635 2.68167 35.3994 3.03848C37.946 3.53342 40.3223 5.09568 42.5703 6.29245C47.4938 8.91356 52.4882 11.3999 57.3935 14.0549C59.9888 15.4597 62.5654 16.916 65.098 18.4328C66.4384 19.2355 66.7936 19.4518 66.8679 20.9941C67.1537 26.9239 68.6146 32.7359 69.692 38.5577C70.3003 41.8442 70.9051 45.1306 71.3969 48.4372C71.9278 52.007 72.1389 55.6843 72.9586 59.2054C73.2209 60.3318 74.8223 61.7301 73.4532 62.1457C69.3473 63.3922 65.1173 63.329 60.8553 63.0997C50.1814 62.5255 39.7991 61.3127 29.1265 62.7599C22.9327 63.5999 16.82 64.9352 10.6463 65.8963C9.22651 66.1173 7.84037 65.9427 6.42963 65.7656" stroke="black" stroke-width="5" stroke-linecap="round"/>
</svg>
