<svg width="80" height="63" viewBox="0 0 80 63" fill="none" xmlns="http://www.w3.org/2000/svg">
<path d="M48.4589 14.102C48.8836 14.102 49.008 14.3049 49.3772 14.6575C50.7801 15.9973 51.8057 17.1066 53.0048 18.7442C54.9176 21.3567 57.061 24.6135 56.9385 28.0343C56.8185 31.3838 52.8228 31.8638 50.3068 31.3161C46.9903 30.5942 44.901 28.0495 45.1374 24.6561C45.2523 23.0076 45.9037 20.8562 47.5974 20.1442C49.9231 19.1667 51.5556 21.9277 52.1829 23.7095C52.4883 24.5771 53.2434 27.5495 51.3724 27.4901C50.045 27.448 49.6971 25.7951 49.4792 24.8148" stroke="black" stroke-width="3" stroke-linecap="round"/>
<path d="M31.2166 14C29.6804 14.0904 27.755 15.1038 26.4837 15.7628C22.8403 17.6513 19.1726 20.5823 19.1321 25.0755C19.1066 27.9121 20.9754 31.3003 23.5873 32.5348C26.8426 34.0734 31.6317 32.7755 33.3818 29.576C34.6321 27.2904 34.0582 24.2684 32.3502 22.3548C30.778 20.5934 28.0195 20.6173 26.3987 22.3095C25.2744 23.4833 24.3283 26.1439 25.3104 27.6715C25.8592 28.5252 26.8879 28.2807 27.6457 27.9776" stroke="black" stroke-width="3" stroke-linecap="round"/>
<path d="M60.0066 39.2047C60.0369 39.5082 60.2582 39.7883 60.3571 40.0702C60.535 40.5778 60.7168 41.1472 60.6932 41.6939C60.644 42.8358 59.8421 42.7315 58.9908 42.4235C58.3341 42.1859 56.9325 40.9232 56.6805 42.1517C56.4735 43.1606 56.7964 45.1634 55.1283 44.6266C54.4008 44.3925 53.0695 43.5833 52.4674 43.2103C52.0143 42.9296 50.6203 41.6595 49.9639 41.6438C49.4486 41.6316 50.3939 45.3204 50.4646 45.6423C50.5354 45.9653 50.8384 46.4437 50.5647 46.6294C50.1941 46.8809 48.2029 45.5819 48.1184 45.535C47.9042 45.4161 45.0095 43.4113 44.685 43.7682C44.2862 44.207 44.5004 45.0129 43.6621 45.0129C43.138 45.0129 42.1041 44.7192 41.6736 44.6123C41.3274 44.5263 39.8308 43.9053 39.4348 44.412C39.1725 44.7476 39.4365 46.3516 39.0342 46.4363C38.7213 46.5022 38.1012 46.1414 37.9398 46.0572C37.0046 45.5692 36.1497 44.9505 35.2288 44.4406C34.113 43.8228 34.7302 44.8151 34.0844 45.2417C33.6562 45.5247 32.9165 45.4393 32.4893 45.442C31.3055 45.4496 30.3202 45.5351 29.1775 45.8426C27.1199 46.3963 25.1359 46.3208 23.026 46.1645C22.0197 46.0899 21.0831 46.0253 20.0933 46.1573" stroke="black" stroke-width="4" stroke-linecap="round"/>
<path d="M76.1814 23.4585C75.4939 23.1246 74.9872 22.6868 74.3941 22.1767C71.7134 19.8717 69.1245 17.4549 66.5048 15.0818C62.6405 11.5811 58.7914 8.06785 54.9868 4.50253C54.5698 4.1118 53.8226 3.1175 53.1905 2.97702C51.6515 2.63503 50.0763 2.68311 48.4966 2.67011C44.1699 2.6345 39.8291 2.64058 35.5163 3.03118C31.2844 3.41445 27.1296 4.14152 23.0685 5.39617C21.9348 5.74641 20.335 6.03648 19.3495 6.75919C18.9499 7.05227 18.5928 7.27092 18.2122 7.69796C12.732 13.8453 9.56273 21.7517 4.99712 28.5586C4.50299 29.2953 3.62135 30.1646 3.26401 30.9687C3.14275 31.2415 3.27648 31.8885 3.30914 32.079C3.61461 33.8609 4.18966 35.6085 4.79853 37.3054C6.81394 42.9222 9.72525 48.1924 12.408 53.5083C13.3511 55.377 14.2637 57.2912 15.2965 59.1138C15.4189 59.3298 15.5211 59.3761 15.5854 59.6013C15.6189 59.7187 15.9011 59.836 16.0096 59.836C16.424 59.836 17.0441 59.6033 17.3997 59.511C19.6668 58.9229 21.9236 58.2493 24.242 57.8862C28.2774 57.2542 32.3896 57.4875 36.446 57.0557C40.1307 56.6636 43.7933 56.0496 47.4766 55.6295C51.7692 55.14 56.0592 54.944 60.3576 54.5734C60.9008 54.5266 61.4214 54.4922 61.9644 54.4922C62.5643 54.4922 63.3366 53.6216 63.7155 53.2826C66.161 51.0945 67.8952 48.0196 69.2128 45.0503C70.9403 41.157 72.1863 37.0617 73.5817 33.0448C74.519 30.3465 75.5844 27.7047 76.4883 24.993C76.683 24.4087 76.8693 23.4395 77.4812 23.1336" stroke="black" stroke-width="5" stroke-linecap="round"/>
</svg>
