<svg width="77" height="101" viewBox="0 0 77 101" fill="none" xmlns="http://www.w3.org/2000/svg">
<path d="M54.3335 41.8337C53.6488 41.7616 53.253 41.1632 52.863 40.6537C51.9106 39.4091 50.8517 38.3646 49.5954 37.4223C48.7964 36.8231 47.5646 35.7885 46.4911 35.7885" stroke="black" stroke-width="5" stroke-linecap="round"/>
<path d="M34.2373 33.6645C33.7014 33.7469 33.1909 34.0595 32.7487 34.3543C31.0633 35.4779 29.5491 36.8685 27.8926 38.0395C26.3583 39.1241 24.7189 39.8984 23.1272 40.8534" stroke="black" stroke-width="5" stroke-linecap="round"/>
<path d="M50.2761 77C50.2761 74.6561 49.2072 72.4267 48.3107 70.3229C45.3545 63.3863 42.2566 56.6253 38.1733 50.2916C38.0871 50.1579 37.4284 48.623 37.0742 49.0871C36.2497 50.1676 35.6289 51.4884 34.9278 52.6482C31.2717 58.6965 27.0845 64.3723 23.1741 70.2443C22.461 71.3153 21.1838 72.8613 22.7345 73.5698C26.5962 75.3341 30.8714 75.7842 35.0312 76.293C39.191 76.8018 43.3947 77.0763 47.4831 75.9002C49.671 75.2709 51.7729 74.1517 54 73.7007" stroke="black" stroke-width="5" stroke-linecap="round"/>
<path d="M72.6858 41.6092C71.3157 52.5529 68.8618 63.2794 67.2672 74.1798C66.43 79.9023 65.0028 85.5739 64.2761 91.2983C64.1006 92.6807 64.7105 96.3993 63.149 97.2497C60.6501 98.6107 56.0082 97.7042 53.3955 97.7042C47.8283 97.7042 42.4423 97.4913 36.9229 96.752C34.9743 96.491 33.0397 96.146 31.0708 96.146C27.7433 96.146 24.4231 97.0191 21.2089 97.6609C20.5534 97.7918 19.3726 97.8647 19.0198 97.1415C18.6569 96.3978 18.612 95.4307 18.3479 94.6528C17.4509 92.0108 16.0698 89.5543 15.1184 86.9267C12.1528 78.7365 9.19568 70.4192 6.53528 62.1254C4.56141 55.9719 3.50142 49.5578 3.28411 43.1025C3.17508 39.8639 2.71603 35.9447 3.26244 32.6712C3.38166 31.957 3.74695 32.6505 4.04272 32.8227C4.98959 33.3742 5.83503 32.6185 6.53528 32.0004C13.884 25.5135 18.997 16.8659 26.0857 10.0991C30.7 5.69429 34.0112 -0.223738 39.6322 5.12151C42.5409 7.88746 45.5874 10.609 48.2586 13.605C51.67 17.4311 54.4661 21.6528 58.2506 25.1616C60.146 26.919 62.23 28.4781 64.3411 29.966C65.8989 31.064 66.3367 32.8789 67.4405 34.3377C69.1037 36.5356 71.3193 38.4156 73.0759 40.5704C73.3309 40.8832 74.6145 41.6092 73.6394 41.6092C72.3634 41.6092 71.5348 41.9131 70.3449 42.3883" stroke="black" stroke-width="5" stroke-linecap="round"/>
</svg>
