<svg width="78" height="76" viewBox="0 0 78 76" fill="none" xmlns="http://www.w3.org/2000/svg">
<path d="M29 38.1867C29.0581 42.4837 29.5091 46.8862 30.7735 51.0057C31.72 54.0896 33.0882 56.8845 35.4303 59.1576C37.0315 60.7118 39.7022 62.6219 42.1094 62.3935C43.8426 62.2291 45.0869 60.895 45.9469 59.5103C48.0733 56.0863 48.9917 51.7598 49.3798 47.801C49.632 45.2279 49.5458 42.6809 49.0998 40.1365C48.927 39.1513 48.7829 38.6467 48.2286 38" stroke="black" stroke-width="5" stroke-linecap="round"/>
<path d="M20 19.2302C20.5166 19.3335 21.0187 19.664 21.475 19.9028C23.4637 20.9434 25.369 22.1453 27.3926 23.1182C28.2688 23.5395 29.3029 23.7107 30.1419 24.1625C30.4282 24.3166 30.6002 24.251 30.8558 24.5165C31.1664 24.839 31.0871 24.9038 31.5756 24.9649" stroke="black" stroke-width="5" stroke-linecap="round"/>
<path d="M41.8767 25.9206C41.9634 25.5306 42.6107 25.3333 42.8915 25.1477C45.2395 23.5964 47.4376 21.8867 49.8593 20.4396C51.5889 19.4061 53.0115 17.6425 54.9391 17" stroke="black" stroke-width="5" stroke-linecap="round"/>
<path d="M31.9253 3.00074C32.2334 3.00074 32.5416 3.00074 32.8497 3.00074C33.8033 3.00074 33.545 2.96794 35.0066 3.33968C40.1982 4.66009 45.3811 6.37258 50.3517 8.36225C62.5952 13.2633 72.2876 25.4797 74.4168 38.5131C75.4176 44.6391 75.4018 50.9444 74.4477 57.0781C73.9112 60.5264 73.0024 64.6618 70.2725 67.1232C68.1618 69.0263 65.1773 69.5167 62.4613 69.8348C55.3837 70.6637 48.2797 71.2373 41.2001 72.0841C32.9375 73.0725 24.7178 73.032 18.4907 66.7534C11.5836 59.7893 7.12485 50.432 4.42445 41.0706C3.38794 37.4773 2.81618 33.6773 3.05325 29.9316C3.3821 24.7358 5.36454 21.0228 8.78452 17.144C13.9773 11.2547 21.5316 3.82385 29.9841 4.38733" stroke="black" stroke-width="5" stroke-linecap="round"/>
</svg>
