<svg width="75" height="106" viewBox="0 0 75 106" fill="none" xmlns="http://www.w3.org/2000/svg">
<path d="M23.8594 23.3092C23.6934 23.7034 23.6992 23.9582 23.6545 24.4406C23.2259 29.0633 23.0216 33.7274 23.503 38.356C23.7648 40.8725 24.1432 44.4523 26.14 46.3382C27.5014 47.624 29.112 47.1421 30.2113 45.7413C31.7003 43.8441 32.1367 41.3181 32.1979 38.9707C32.2975 35.1554 31.4694 31.023 30.238 27.4251C29.3876 24.9402 27.5197 21.866 24.5008 21.866" stroke="black" stroke-width="5" stroke-linecap="round"/>
<path d="M43.423 22.6678C43.3799 23.0985 43.1135 23.5748 43.0221 23.9863C42.4086 26.7468 41.9992 29.5945 41.8016 32.4139C41.6327 34.8236 41.5795 37.3369 42.2916 39.6745C42.8807 41.6086 45.3519 45.3343 47.5922 42.6055C49.9108 39.7814 50.0237 35.2137 49.6056 31.826C49.4378 30.4661 49.1359 29.115 48.6969 27.817C46.7332 22.0112 47.7714 26.9651 45.3473 21.866" stroke="black" stroke-width="5" stroke-linecap="round"/>
<path d="M21 56C21 58.55 21.3251 61.2096 21.779 63.7183C21.8568 64.1481 22.6779 63.9691 22.9142 63.9285C24.4873 63.6584 26.0126 63.0294 27.5216 62.5541C30.6278 61.5757 33.7481 60.6605 36.9645 60.0801C41.6415 59.2363 46.5778 58.8705 51.3375 59.0722C51.7288 59.0888 52.3527 59.1435 52.7731 59.2555C52.8122 59.2659 53.0641 59.3452 52.9846 59.4441C52.8226 59.6458 52.4786 59.5897 52.2501 59.5897" stroke="black" stroke-width="5" stroke-linecap="round"/>
<path d="M4.81118 86.1924C4.56489 86.4689 4.47247 86.766 4.37634 87.1224C3.43364 90.617 3.99841 95.3263 4.5627 98.8095C4.68027 99.5352 5.15099 102.094 6.17783 102.685C8.34744 103.932 11.8282 100.025 12.7626 99.011C15.4391 96.1061 17.4332 92.8135 18.9746 89.1994C19.4117 88.1746 19.456 85.6568 20.4345 86.1923C20.9767 86.4891 21.9678 88.603 21.9875 88.6414C23.3051 91.2153 24.4571 93.8685 25.4662 96.5775C26.0679 98.1928 26.4065 101.091 27.6094 102.452C30.0854 105.253 34.0514 96.4817 34.4426 94.9654C35.2693 91.761 35.8521 88.4813 36.6323 85.2623C36.9526 83.9411 37.1404 82.4164 37.735 81.1703C37.7709 81.0951 37.7893 80.9078 37.8592 80.9533C38.6781 81.4863 39.8948 84.0778 40.1887 84.5958C42.9984 89.5481 45.2572 94.7342 47.7364 99.848C49.3648 103.207 51.8307 97.5313 52.5662 96.0504C55.4407 90.2631 56.1608 83.154 56.5264 76.7682C56.5812 75.8108 58.1295 77.8923 58.6851 78.6748C61.3271 82.3958 63.3869 86.4829 65.1301 90.6874C65.6954 92.0511 66.7119 95.8305 68.733 93.8649C70.798 91.8568 71.4692 88.1959 71.7769 85.4793C72.121 82.4421 72.0056 79.1929 71.8391 76.1792C71.4281 68.7442 70.6574 61.3078 69.727 53.921C68.8693 47.1119 67.5145 40.4021 65.8755 33.7398C64.2211 27.0151 62.426 20.2105 58.6695 14.3026C55.8755 9.90834 52.3727 5.8858 47.3481 4.07248C42.52 2.33011 37.2523 2.86557 32.4858 4.56849C27.2199 6.44982 22.9466 10.2879 19.161 14.2716C14.5156 19.16 10.6102 24.7069 8.08803 30.9808C4.37592 40.2147 2.77538 49.9023 3.02522 59.8266C3.2647 69.3397 4.85944 78.679 5.6498 88.1454" stroke="black" stroke-width="5" stroke-linecap="round"/>
</svg>
