<svg width="91" height="91" viewBox="0 0 91 91" fill="none" xmlns="http://www.w3.org/2000/svg">
<path d="M25.5833 52.6522C25.6235 52.3303 25.9644 52.4376 26.2202 52.3847C26.9829 52.2269 27.7144 51.8522 28.4368 51.5822C30.9831 50.6302 33.5761 49.8092 36.1693 48.9962C43.8788 46.579 51.6361 44.2942 59.4688 42.3082C62.9884 41.4159 66.6519 40.802 70.0676 39.5821" stroke="black" stroke-width="5" stroke-linecap="round"/>
<path d="M24.5833 25.8326C25.0243 25.0484 27.5033 25.3878 28.22 25.3515C29.3135 25.2961 31.7116 24.7246 32.3764 25.8326" stroke="black" stroke-width="5" stroke-linecap="round"/>
<path d="M45.8843 24.9667C45.9627 24.2613 47.801 24.739 48.1741 24.755C50.5829 24.8586 53.0135 24.8599 55.4092 24.6203" stroke="black" stroke-width="5" stroke-linecap="round"/>
<path d="M10.8475 44.138C11.2195 50.8337 14.015 57.1901 14.7499 63.8711C15.3573 69.3931 15.42 74.959 15.5545 80.5065C15.597 82.2584 15.047 86.7116 16.8419 88.0698C17.447 88.5278 18.8161 87.0892 19.2155 86.8629C22.8839 84.7841 27.2529 84.1789 31.3852 83.8456C37.6714 83.3387 44.012 83.2082 50.3137 82.9605C51.0045 82.9334 54.04 83.3898 54.4776 82.4174C55.1 81.0342 54.9906 79.1375 54.9402 77.6903C54.7485 72.1796 53.4844 66.7768 51.762 61.5579C51.6703 61.2799 49.1042 54.7235 49.7706 54.779C52.4143 54.9993 55.2132 56.6663 57.9173 57.0923C66.7734 58.4874 75.6088 58.6201 84.3488 56.4687C85.0759 56.2897 86.9054 56.0459 87.4465 55.3624C88.3006 54.2836 87.0259 50.8335 86.7626 49.8709C83.4131 37.6244 79.4864 25.5228 76.2624 13.241C75.8852 11.804 74.9149 2.13454 71.998 3.06264C66.8476 4.7014 61.1725 4.38231 55.8655 5.15463C45.9414 6.59889 36.0829 8.36963 26.1351 9.68057C21.4872 10.2931 16.8001 10.7733 12.1751 11.5513C11.0007 11.7489 2.83402 12.7594 3.00257 14.0657C3.2549 16.0213 4.57945 18.0167 5.21525 19.8589C6.75169 24.3106 7.50376 29.0041 8.67508 33.5574C10.132 39.2207 11.8301 45.1279 15.1924 49.9312" stroke="black" stroke-width="5" stroke-linecap="round"/>
</svg>
