<svg width="83" height="106" viewBox="0 0 83 106" fill="none" xmlns="http://www.w3.org/2000/svg">
<path d="M26.4455 53.298C32.1865 52.6972 37.8341 51.816 43.6264 51.782C44.2757 51.7782 49.1337 51.2388 49.4797 52.0347C49.8207 52.8191 49.7227 54.4914 49.785 55.235C50.0351 58.2209 50.3089 61.2095 50.4272 64.2045C50.6759 70.5023 50.7583 77.6655 47.9427 83.4909C46.8137 85.8266 44.5417 87.0571 41.942 86.7755C36.5068 86.1867 34.1497 78.2401 32.6357 74.2267C30.0883 67.4742 28.4851 60.3212 25.6875 53.677" stroke="black" stroke-width="5" stroke-linecap="round"/>
<path d="M18.6875 36.6774C18.6875 34.525 18.7639 32.4657 19.6866 30.456C21.1401 27.29 24.9548 24.3666 28.451 23.8487C29.5123 23.6914 29.6375 24.0781 29.9723 25.0521C30.5648 26.7758 31.2024 28.5043 31.7206 30.2517C32.3313 32.3112 32.8076 35.8863 31.3573 37.6992" stroke="black" stroke-width="5" stroke-linecap="round"/>
<path d="M46.4794 35.0426C46.4794 32.6129 46.936 29.7171 47.8417 27.4816C49.3128 23.8505 52.0541 22.5999 55.8228 22.5999C58.7861 22.5999 59.5688 26.0338 59.7849 28.5488C60.1969 33.3423 57.7687 38.2122 55.6752 42.3993" stroke="black" stroke-width="5" stroke-linecap="round"/>
<path d="M3.88029 26.4484C5.15883 23.5905 7.64865 21.36 9.94454 19.3082C15.5928 14.2606 22.3164 10.7393 29.0371 7.35577C31.0026 6.36626 33.0299 5.4308 34.8667 4.20627C35.2901 3.92395 35.917 3.1661 36.4512 3.03254C37.1453 2.85901 38.1976 3.42444 38.7595 3.66831C44.3817 6.10811 49.7869 8.95572 55.5047 11.1997C62.9581 14.1249 70.6186 16.037 78.2358 18.4083C79.1005 18.6775 79.8277 18.7263 79.3704 19.6408C77.6347 23.1122 76.527 26.7643 75.2233 30.4195C71.9372 39.6327 67.5944 48.3569 63.9946 57.4347C61.6434 63.3638 59.4829 69.8758 59.3486 76.3219C59.3281 77.3066 59.1803 78.4763 59.4562 79.4421C60.2901 82.3607 61.5389 85.1734 62.4199 88.0885C63.7313 92.4282 64.7609 97.0391 66.9485 101.058C67.075 101.291 67.8032 102.089 67.5843 102.418C67.2812 102.872 66.1917 102.858 65.7356 102.897C62.866 103.143 59.9655 103.034 57.0892 103.034C49.8041 103.034 42.5228 102.918 35.2383 102.868C33.1583 102.853 31.0781 102.858 28.998 102.858C28.8205 102.858 27.2064 103.053 26.9831 102.78C26.8557 102.624 26.7844 102.054 26.7386 101.899C26.3256 100.505 25.915 99.1024 25.4279 97.7326C23.3539 91.8993 21.1075 86.2003 19.305 80.2637C17.5054 74.3364 15.9157 68.3341 13.8765 62.4818C12.304 57.9686 10.635 53.0181 10.5705 48.1819C10.553 46.8642 9.72322 45.7071 9.42615 44.3868C8.76233 41.4365 7.49196 38.779 6.43315 35.9555C5.14942 32.5323 3.59931 28.9879 3 25.392" stroke="black" stroke-width="5" stroke-linecap="round"/>
</svg>
