<svg width="80" height="59" viewBox="0 0 80 59" fill="none" xmlns="http://www.w3.org/2000/svg">
<path d="M27.9313 18.5931C27.9828 18.0821 28.4932 18.4904 28.7385 18.2689C29.2752 17.7843 29.2169 20.5934 29.1896 20.9659C28.8394 25.7478 27.0502 19.7705 26.0083 19.1237" stroke="black" stroke-width="5" stroke-linecap="round"/>
<path d="M52.0758 26.8167C52.0758 28.2777 53.9503 28.4461 53.9988 29.4694C54.0597 30.7558 52.025 29.0651 51.6484 30" stroke="black" stroke-width="5" stroke-linecap="round"/>
<path d="M3.8779 50.3384C4.87846 50.3384 5.90449 50.4677 6.88956 50.5545C19.1758 51.6371 31.3843 53.0653 43.5904 54.8043C47.1744 55.315 51.194 56.2343 54.8689 55.9448C55.1954 55.9191 55.459 55.7407 55.7834 55.7407C56.3982 55.7407 56.328 55.3027 56.5638 54.7203C62.217 40.7543 67.6551 26.7186 73.1462 12.69C74.2259 9.93161 76.1583 6.14559 76.987 3.08584C77.0936 2.69211 76.5179 3.76459 76.2188 4.04626C75.8717 4.37323 75.418 4.70442 74.9508 4.83861C73.2952 5.31405 71.076 4.95465 69.403 4.95866C61.5336 4.97751 53.6658 5.26282 45.7974 5.03069C38.7984 4.82421 31.7774 4.09428 24.7767 4.09428C23.8291 4.09428 23.5415 4.84841 23.094 5.60694C17.4136 15.2369 13.7539 26.1315 9.85246 36.5324C7.6337 42.4473 5.55337 48.4458 3 54.2281" stroke="black" stroke-width="5" stroke-linecap="round"/>
</svg>
