<svg width="61" height="68" viewBox="0 0 61 68" fill="none" xmlns="http://www.w3.org/2000/svg">
<path d="M26.0782 52.6082C24.9716 48.5102 23.7383 44.0585 24.0486 39.8232C24.3436 35.797 27.6525 32.4091 32.3647 33.0868C37.0542 33.7613 39.8594 38.4798 41.6486 41.9808C43.9028 46.3917 44.4889 51.2195 45 56" stroke="black" stroke-width="5" stroke-linecap="round"/>
<path d="M11 15C11 19.7726 11.2945 25.7323 17.0738 26.5232C19.7699 26.8921 22.3563 26.6535 23.7379 23.9915C24.7409 22.059 24.3746 20.2077 23.6698 18.2696" stroke="black" stroke-width="5" stroke-linecap="round"/>
<path d="M35.1135 16.6348C35.2551 18.0509 35.9451 19.8238 36.6689 21.017C37.503 22.3923 38.5093 24.6042 39.9726 25.4219C40.5381 25.738 41.2991 25.2879 41.7663 25.0132C43.8908 23.7643 45.9608 22.0009 47.6698 20.2337C49.2219 18.6287 50.1005 16.893 48.192 15.4087" stroke="black" stroke-width="5" stroke-linecap="round"/>
<path d="M13.5121 57.8268C12.4538 55.3256 11.6945 52.6233 10.9193 50.0299C7.90578 39.9483 5.7491 29.464 3.94311 19.1034C3.67654 17.5741 1.21665 4.49046 3.77524 4.44218C4.99635 4.41914 6.20021 4.47983 7.41255 4.62871C12.6226 5.26854 17.8834 5.11158 23.1183 4.90851C30.0161 4.64092 36.8801 4.00625 43.7671 3.58415C46.5739 3.41212 51.1982 2.10378 52.4593 5.48675C55.1643 12.7429 56.0657 21.1467 56.8428 28.7656C57.9463 39.5862 57.9434 50.5049 58.1485 61.3708C58.1605 62.0087 58.5845 63.7011 57.6821 63.945C56.0921 64.3747 54.5203 64.5548 52.8697 64.5418C48.3458 64.5062 43.7982 63.7095 39.3277 63.1242C30.8643 62.0163 22.4081 60.7857 13.9224 59.86C12.1361 59.6651 10.6568 58.3968 9.14727 57.491" stroke="black" stroke-width="5" stroke-linecap="round"/>
</svg>
