<svg width="73" height="88" viewBox="0 0 73 88" fill="none" xmlns="http://www.w3.org/2000/svg">
<path d="M21.2731 23.1064C22.1126 23.1064 22.9581 23.0767 23.7951 23.1535C24.9698 23.2613 26.1166 23.5075 27.2599 23.7899C28.307 24.0485 29.9179 24.0717 30.8544 24.6266C33.2712 26.0589 23.6065 33.6987 23.6065 34.9858" stroke="black" stroke-width="5" stroke-linecap="round"/>
<path d="M48.0017 23.3185C46.7859 23.7861 39.9127 28.6991 42.6159 29.8003C43.851 30.3035 45.0601 30.8299 46.3164 31.2853C47.4836 31.7084 48.7338 32.4402 50.0051 32.4402C50.9637 32.4402 51.9222 32.4402 52.8807 32.4402" stroke="black" stroke-width="5" stroke-linecap="round"/>
<path d="M22.1244 43.7308C29.6523 47.0335 38.0963 46.9393 46.1844 47.659C46.6556 47.7009 53.8958 47.9395 53.9718 48.6436C54.0534 49.3993 53.9399 50.2312 53.8573 50.9781C53.4802 54.3876 52.7589 57.7791 52.025 61.1284C51.1265 65.2287 49.8768 69.2969 49.1515 73.4305C48.8306 75.2596 45.2829 72.1342 44.8101 71.7151C42.2845 69.4767 40.1462 66.825 37.97 64.275C34.8908 60.6667 31.7672 57.0929 28.725 53.4548C25.9063 50.084 23.4598 46.5972 21 43" stroke="black" stroke-width="5" stroke-linecap="round"/>
<path d="M3.2929 11.3984C2.7141 12.4836 3.14015 14.0651 3.32574 15.1919C4.21198 20.5726 5.95451 25.6895 7.59551 30.8751C10.1923 39.081 12.401 47.4118 14.0166 55.8696C15.3015 62.5965 15.7566 69.3951 16.562 76.1839C16.8045 78.228 16.8905 80.2272 16.8905 82.2765C16.8905 83.192 16.4108 85.2519 17.613 85.2982C21.9841 85.4663 26.3944 85.2982 30.7672 85.2982C34.3463 85.2982 37.6601 85.0942 41.0803 83.968C44.031 82.9964 46.8212 81.6496 49.7348 80.585C54.3027 78.916 59.2659 78.4686 63.1353 75.2806C72.0232 67.9579 70.1724 55.0014 68.9816 44.8339C68.2841 38.8782 68.2594 32.9481 66.1242 27.2786C64.744 23.6141 62.5193 18.5631 59.1283 16.325C55.0678 13.645 50.8373 11.2844 46.4504 9.16493C43.3051 7.64531 38.8555 5.87356 35.2833 5.78196C30.7753 5.66637 25.8844 5.10416 21.5051 3.99195C17.6554 3.01425 14.9943 2.29607 11.2741 4.15617C10.5353 4.52557 6.35429 7.09417 8.77791 4.9937C9.73912 4.16065 7.45558 7.44893 6.24889 7.85116" stroke="black" stroke-width="5" stroke-linecap="round"/>
</svg>
