<svg width="73" height="83" viewBox="0 0 73 83" fill="none" xmlns="http://www.w3.org/2000/svg">
<path d="M32.9646 39.1715C32.5915 38.7306 32.3491 38.0978 32.0783 37.6019C31.4966 36.5362 30.8993 35.5259 30.1172 34.5943C28.2616 32.3839 26.0258 30.7998 23.5185 29.3979C23.3656 29.3124 20.0432 27.5653 20.0233 28.1024C19.9721 29.4852 19.4531 30.8639 19.1976 32.2168C18.9681 33.4319 18.916 34.6529 19.162 35.8721C19.4981 37.5382 20.6299 38.6875 22.0378 39.5701C23.2478 40.3286 24.6423 40.6204 26.0384 40.8229C27.6613 41.0584 29.2784 40.9939 30.886 40.677C31.5694 40.5423 32.24 40.3435 32.9076 40.1467C33.0452 40.1061 33.1681 40.0822 33.2849 40.0043" stroke="black" stroke-width="5" stroke-linecap="round"/>
<path d="M41.6775 37.6979C42.3217 37.255 42.8784 36.6324 43.4215 36.0892C45.3873 34.1234 47.2894 32.0932 49.2729 30.1453C49.9262 29.5037 50.581 28.7895 51.4155 28.3942C51.8038 28.2102 52.2142 28.7767 52.4797 28.9886C53.7112 29.9714 54.9975 31.1784 55.3555 32.7791C55.8572 35.0219 54.4836 37.3107 52.9602 38.8262C52.3474 39.4359 51.6368 40.0789 50.7998 40.3602C49.9635 40.6413 49.0096 40.5245 48.1553 40.4207C45.6449 40.1159 43.3514 39.1749 41.0369 38.2105" stroke="black" stroke-width="5" stroke-linecap="round"/>
<path d="M19.527 57.8313C20.1104 56.8928 20.8107 56.019 21.513 55.1691C22.55 53.9142 24.7823 51.2925 25.9691 50.2147C26.2841 49.9286 28.1361 48.0944 29.1511 48.8408C29.8917 49.3855 30.1391 51.9689 30.1832 52.4925C30.3239 54.1612 30.2048 56.1657 30.2402 57.8385C30.2481 58.2144 30.2474 60.6327 30.71 61.2055C31.68 62.4067 34.2625 58.5653 34.3226 58.4898C36.3614 55.9246 38.0977 53.036 40.5191 50.7948C40.9016 50.4408 42.0721 49.1342 42.9501 49.6986C43.7775 50.2305 44.1243 52.5076 44.2563 53.0656C44.773 55.2499 45.0738 59.7502 48.2818 59.6252C49.8044 59.5658 51.2173 58.682 52.4496 57.9203C53.6153 57.1998 54.5524 56.3756 55.5959 55.525" stroke="black" stroke-width="5" stroke-linecap="round"/>
<path d="M8.61495 14.6093C8.57186 14.9359 8.49795 15.2544 8.42951 15.5772C7.76735 18.6997 7.27932 21.8507 6.94488 25.0229C6.58183 28.4664 6.42183 31.9296 6.18349 35.3848C5.9068 39.3959 5.43519 43.3749 4.97038 47.3655C4.75435 49.2201 4.5393 51.0764 4.43637 52.9427C4.42632 53.125 4.35244 53.3859 4.3892 53.5735C4.51544 54.2181 5.33286 54.8492 5.84446 55.2847C7.66575 56.8353 9.65775 58.2307 11.5183 59.7456C14.7692 62.3924 17.7285 65.2854 20.8896 68.0082C23.5501 70.2999 26.2952 72.5234 29.0252 74.7541C30.642 76.0752 32.2375 77.4481 33.9715 78.6595C34.7387 79.1955 34.6779 79.2398 35.6028 78.6543C37.8536 77.2294 40.1488 75.843 42.4586 74.4871C45.906 72.4635 49.6303 70.8589 53.3008 69.1431C57.609 67.1293 61.6182 64.8096 65.2341 61.9829C66.3765 61.0899 66.1569 60.6503 66.1701 59.2642C66.2209 53.9046 66.2401 48.5461 66.2717 43.1859C66.3146 35.9136 66.199 28.6863 65.8705 21.4057C65.762 19.0018 65.83 16.5917 65.6253 14.1881C65.6142 14.0577 65.6378 13.3151 65.4908 13.1842C64.9088 12.6656 63.7076 13.0454 62.9714 13.1947C60.4369 13.7087 58.012 14.6206 55.6763 15.552C52.0078 17.0148 48.5584 18.768 45.2393 20.7228C42.9667 22.0613 40.7557 23.4636 38.6521 24.9867C38.0491 25.4233 37.4721 25.8908 36.8413 26.2975C36.7454 26.3594 36.6113 26.4253 36.533 26.5018C36.4316 26.6009 36.616 26.2241 36.55 26.0998C36.1341 25.3166 35.0153 24.5423 34.3505 23.9596C32.0556 21.9485 29.7817 19.9387 27.5727 17.8585C24.1825 14.6659 21.1225 11.2547 17.8123 8.00695C17.0655 7.27426 16.2096 6.24661 15.1779 5.77263C13.6831 5.08588 12.5855 3.77523 11.0459 3.07728C10.7916 2.96201 10.502 2.88734 10.3846 3.16765C10.0352 4.00208 9.95245 4.95896 9.77339 5.83122C9.53676 6.98391 9.25357 8.12647 9.00133 9.27601C8.76924 10.3337 8.5308 11.3414 8.48491 12.4238C8.44888 13.2737 8.26459 14.1809 8.4301 15.026" stroke="black" stroke-width="5" stroke-linecap="round"/>
</svg>
