<svg width="109" height="80" viewBox="0 0 109 80" fill="none" xmlns="http://www.w3.org/2000/svg">
<path d="M60.0632 40.304C63.2904 40.5345 65.6937 43.9745 66.9871 46.5524C68.6745 49.9156 69.9393 54.1495 68.8786 57.901C67.6716 62.1695 63.0794 64.9839 59.0668 66.1591C55.8291 67.1074 52.1556 66.9819 49.2719 65.0614C45.5262 62.5669 44.0942 57.6858 45.2611 53.4511C47.0331 47.0201 53.1058 42.6793 58.8472 40" stroke="black" stroke-width="5" stroke-linecap="round"/>
<path d="M71.7942 17.394C71.728 16.8645 71.0715 17.2876 70.7559 17.058C70.0654 16.5559 70.1405 19.4666 70.1756 19.8524C70.626 24.8071 72.9276 18.6139 74.2679 17.9437" stroke="black" stroke-width="5" stroke-linecap="round"/>
<path d="M40.7352 25.9146C40.7352 27.4284 38.3238 27.6029 38.2615 28.6632C38.1831 29.9961 40.8006 28.2442 41.2849 29.2129" stroke="black" stroke-width="5" stroke-linecap="round"/>
<path d="M50.7056 6.10156C47.4577 6.61103 44.2751 7.7689 41.1027 8.60958C34.9091 10.2509 28.9273 12.0311 23.1308 14.8193C14.0092 19.2069 3.82546 25.63 3.17394 36.8416C2.8394 42.5985 4.84669 48.0019 7.13045 53.1772C9.944 59.5531 13.0227 66.7904 18.1416 71.7124C21.0162 74.4764 24.7628 75.5546 28.6029 76.2456C36.5689 77.6791 45.5186 77.5535 53.4953 76.4334C62.7962 75.1274 71.308 71.6865 78.6157 65.7576C87.4539 58.587 94.1838 49.1714 99.0286 38.9338C102.049 32.5523 104.808 25.574 105.855 18.5478C106.585 13.6481 106.167 7.11349 100.812 4.97497C99.3353 4.38503 96.5645 3.95614 95.0721 3.79472C90.5015 3.30037 85.846 3.30306 81.2579 3.40578C69.31 3.67326 57.3131 5.15488 45.5823 7.40251C41.3617 8.21119 36.1911 8.88194 32.4655 11.2785C30.429 12.5885 29.3713 14.4343 28.2541 16.4823" stroke="black" stroke-width="5" stroke-linecap="round"/>
</svg>
