<svg width="95" height="84" viewBox="0 0 95 84" fill="none" xmlns="http://www.w3.org/2000/svg">
<path d="M33 67.0827C33.7262 65.0856 33.1356 62.2885 33.2074 60.2065C33.2425 59.19 33.178 57.6525 33.7779 56.7528C34.4621 55.7264 36.748 58.514 37.0863 58.8478C38.6772 60.4174 40.1969 62.0851 41.9194 63.5149C42.801 64.2467 44.26 65.5616 45.4768 65.7137C46.4176 65.8313 47.5287 63.4338 47.8311 62.9445C48.6122 61.6806 49.2583 60.1424 50.2787 59.0345C50.851 58.4132 53.7618 62.246 54.2406 62.7371C54.7938 63.3045 55.6442 64.4882 56.5327 64.5728C58.0543 64.7177 59.5497 62.1783 60.256 61.2332C61.6105 59.4209 62.9079 57.3094 65.0061 56.255C67.0626 55.2216 67.4996 57.5656 67.9309 59.0656C69.4629 64.3944 68.9195 70.1551 70.8971 75.2968" stroke="black" stroke-width="5" stroke-linecap="round"/>
<path d="M28 40.0775C28 37.9252 28.0764 35.8658 28.9991 33.8562C30.4526 30.6902 34.2673 27.7667 37.7635 27.2488C38.8248 27.0916 38.95 27.4783 39.2848 28.4522C39.8773 30.1759 40.5149 31.9044 41.0331 33.6518C41.6438 35.7113 42.1201 39.2865 40.6698 41.0993" stroke="black" stroke-width="5" stroke-linecap="round"/>
<path d="M55.7919 38.4427C55.7919 36.0131 56.2485 33.1172 57.1542 30.8817C58.6253 27.2506 61.3666 26 65.1353 26C68.0986 26 68.8813 29.4339 69.0974 31.9489C69.5094 36.7424 67.0812 41.6123 64.9877 45.7994" stroke="black" stroke-width="5" stroke-linecap="round"/>
<path d="M15.0542 78.399C15.0542 73.7167 14.84 69.3286 13.8641 64.7118C11.1184 51.7229 8.35013 38.7653 4.81006 25.9667C4.59638 25.1941 2.50846 19.2432 3.8324 18.7617C5.63082 18.1078 9.8519 20.4286 11.5262 21.0146C15.0296 22.2408 19.6606 24.3996 22.7268 21.3334C25.0277 19.0325 25.9132 16.3784 27.2963 13.5334C27.9501 12.1882 28.4256 10.2027 30.123 9.94152C34.8615 9.21251 37.5586 14.3153 41.6636 15.6587C43.7331 16.336 45.7032 13.8088 47.1895 12.6832C49.3686 11.033 50.9518 8.68869 53.098 7.11481C53.5652 6.77221 55.4201 6.46726 56.0097 6.54096C56.8449 6.64536 57.5913 7.7129 58.1563 8.21999C59.527 9.45005 61.0378 10.1751 62.6196 11.068C64.06 11.8811 64.6446 12.0976 65.9989 10.7917C68.604 8.27956 71.6824 6.12626 74.649 4.0543C74.9363 3.85367 76.9578 2.52853 77.327 2.65157C78.4713 3.03302 79.365 6.40097 79.7074 7.24233C81.3435 11.2637 82.1982 15.3143 82.9804 19.5694C84.3281 26.901 85.784 34.3166 87.7837 41.503C89.635 48.1561 91.132 54.5363 91.1842 61.4812C91.1995 63.5068 91.2239 65.391 91.4818 67.3897C91.6561 68.7404 92.3319 70.281 92.3319 71.5554C92.3319 72.9843 92.4154 74.4536 91.8644 75.8061C91.3392 77.095 88.3062 77.6064 87.1248 77.9739C83.5065 79.0996 78.8374 78.892 75.0954 79.1641C68.2525 79.6618 61.4638 80.7304 54.5857 80.6944C47.0112 80.6547 39.4456 79.9293 31.8445 79.9293C30.1464 79.9293 28.3709 80.0696 26.6799 79.8868C25.0335 79.7088 23.118 77.9734 21.4728 78.484C19.3198 79.1522 16.4344 80.0493 14.6717 81.4595" stroke="black" stroke-width="5" stroke-linecap="round"/>
</svg>
