<svg width="106" height="110" viewBox="0 0 106 110" fill="none" xmlns="http://www.w3.org/2000/svg">
<path d="M69.7144 31.6433C69.6904 31.1102 69.0023 31.4799 68.7059 31.2261C68.0575 30.6708 67.9016 33.5782 67.9059 33.9657C67.9621 38.9405 70.7475 32.9492 72.1367 32.3874" stroke="black" stroke-width="5" stroke-linecap="round"/>
<path d="M38.0776 37.6746C37.9576 39.1836 35.54 39.1664 35.3938 40.2184C35.2099 41.5409 37.9581 40.0021 38.3641 41.0061" stroke="black" stroke-width="5" stroke-linecap="round"/>
<path d="M67.2623 60.7354C67.7309 61.3082 67.9733 62.1279 68.2429 62.8055C69.1249 65.0226 70.0663 67.2466 70.8305 69.5061C71.7842 72.3257 73.0333 77.8548 68.9238 78.9849C64.5894 80.1769 60.7472 78.4257 57.5111 75.5802C56.0996 74.3391 55.0792 72.9307 54.1608 71.3038C53.6654 70.4262 52.9522 68.6308 52.1997 67.9535C51.7419 67.5415 51.0774 70.0259 51.0284 70.1598C50.2289 72.3451 49.1835 74.303 47.6509 76.0704C44.5128 79.6894 37.9407 83.8915 32.956 81.736C27.2852 79.2837 25.7319 72.0606 26.6231 66.5644C27.1264 63.4609 29.1782 60 32.6972 60" stroke="black" stroke-width="5" stroke-linecap="round"/>
<path d="M90.2216 41.8538C92.511 41.445 93.7779 38.2407 94.8797 36.5028C97.4069 32.5169 99.9575 28.4744 102.233 24.3378C102.473 23.9004 103.636 23.1444 103.137 23.1444C101.49 23.1444 99.8721 23.3454 98.229 23.4138C95.2452 23.5382 88.1686 23.6712 86.3912 20.4496C84.3969 16.835 83.2068 12.5109 80.2509 9.55496C79.7581 9.06212 79.4907 8.35497 78.6341 8.40005C77.725 8.4479 76.8415 9.08713 76.0933 9.51646C74.26 10.5683 72.3984 11.4269 70.4535 12.2497C67.5767 13.4668 64.9541 15.0096 62.2151 16.4844C61.5965 16.8175 60.0506 17.8364 59.3856 17.9473C58.7814 18.048 58.2963 18.3859 57.6918 18.0628C53.9273 16.0507 50.9708 12.4433 47.2591 10.2094C43.9543 8.22038 40.6013 6.2284 37.2499 4.31939C36.7441 4.03128 35.573 2.98559 35.4021 3.62644C34.6867 6.30908 33.2307 8.70197 32.4378 11.3451C31.7371 13.6809 32.1447 16.1793 31.6679 18.5632C31.2367 20.7189 30.875 22.5402 28.9154 23.6833C28.0921 24.1636 27.7681 24.139 26.7403 24.0105C23.5837 23.616 20.4833 24.2566 17.3855 24.7997C15.0339 25.212 12.4923 25.4219 10.2636 26.3396C9.03948 26.8437 7.95946 27.6677 6.72191 28.1489C6.06967 28.4026 2.42139 28.865 2.52576 29.8043C2.62706 30.716 5.02424 32.1981 5.6055 32.8456C7.19627 34.6176 8.61369 36.6641 9.82091 38.7163C10.6115 40.0603 11.4989 40.9103 12.7467 41.8346C13.254 42.2104 14.9618 43.0515 14.1133 43.6632C9.04796 47.3149 6.46647 54.7989 4.52759 60.4863C2.85016 65.4068 3.46818 69.8079 3.58442 74.9804C3.67235 78.8931 4.003 82.6044 4.60458 86.4717C4.86734 88.1608 4.21999 90.9503 6.02897 91.5533C11.7181 93.4497 17.3174 95.1883 22.9098 97.4433C27.181 99.1655 28.7922 104.15 32.5533 106.837C35.0176 108.597 39.2515 106.345 41.4653 105.374C45.2894 103.696 48.9459 101.791 52.3792 99.4066C54.2593 98.101 56.2827 96.2703 58.5387 95.6339C59.3252 95.4121 60.0321 95.721 60.733 96.0574C63.7503 97.5057 66.7858 98.9106 69.7798 100.408C72.1766 101.606 74.5121 102.659 77.1712 103.102C78.6175 103.343 79.9898 101.261 80.8861 100.408C86.3666 95.188 90.8421 89.3535 95.3802 83.2765C96.6598 81.5628 96.0609 81.2169 94.3023 80.6587C92.8325 80.1921 91.547 79.6396 90.4141 78.5606C88.8848 77.1041 88.1346 74.8765 87.1804 73.0363C86.8657 72.4295 85.8991 71.3781 86.8339 70.9575C88.0709 70.4008 89.2135 70.0827 90.4333 69.3983C92.1509 68.4348 94.0367 67.7945 95.7267 66.7805C97.5358 65.6951 99.0823 63.7988 100.462 62.2187C101.268 61.2946 101.948 60.3928 102.964 59.6779C103.803 59.0873 101.802 58.4994 101.309 58.061C97.5027 54.6779 91.261 48.5621 91.261 42.8932" stroke="black" stroke-width="5" stroke-linecap="round"/>
</svg>
