<svg width="64" height="73" viewBox="0 0 64 73" fill="none" xmlns="http://www.w3.org/2000/svg">
<path d="M49.2538 24.4013C49.7297 25.829 50.1867 27.2624 50.5426 28.7256C50.5904 28.9222 50.6908 29.2063 50.6806 29.4213C50.6756 29.5249 50.4667 29.402 50.3782 29.348C49.5222 28.8254 48.6984 28.2457 47.8564 27.701C47.5655 27.5128 46.9366 27.1078 46.6293 26.9143C46.4211 26.7831 46.157 26.5809 45.91 26.5033C45.5898 26.4026 45.0055 26.8608 44.7798 26.9847C43.8064 27.5191 42.8143 28.0223 41.847 28.5671C41.7638 28.6139 41.6626 28.7411 41.5857 28.6845C41.5596 28.6652 41.5544 28.6258 41.5505 28.5935C41.5171 28.3175 41.5308 28.0377 41.527 27.7597C41.5145 26.8388 41.4868 25.9027 41.6621 24.9943C41.7449 24.5649 41.4349 24.3974 41.1219 24.1077C40.051 23.1166 38.9659 22.1455 37.9337 21.1133C37.8263 21.0059 37.5 20.7594 37.6519 20.7551C38.8429 20.7221 40.0364 20.8041 41.2217 20.6377C41.3559 20.6189 41.9673 20.5811 42.0672 20.4263C42.1169 20.3493 42.2222 20.0252 42.2287 20.0065C42.4344 19.4168 42.6259 18.8226 42.8246 18.2304C43.0968 17.4191 43.3913 16.6115 43.7846 15.8496C43.8615 15.7006 43.9746 15.6297 44.1339 15.5766C44.3816 15.494 45.6531 19.1992 45.9834 19.6807C46.1617 19.9405 46.8191 19.8103 47.0579 19.8275C48.4116 19.9245 49.7322 20.1637 51.0916 20.1739C51.1655 20.1744 51.5919 20.1382 51.6405 20.2355C51.6831 20.3207 51.2416 21.0071 51.2149 21.0663C50.9023 21.7586 50.6948 22.5343 50.252 23.1595C50.0585 23.4327 49.8069 23.6661 49.5709 23.9022C49.4621 24.011 49.7077 23.9174 49.6531 24.0901C49.577 24.3304 49.2909 24.8469 49.0424 24.9297" stroke="black" stroke-width="3" stroke-linecap="round"/>
<path d="M28.6953 24.5651C29.0362 25.0798 29.1976 25.701 29.37 26.2869C29.5836 27.0123 29.8084 27.734 30.0245 28.4584C30.0617 28.5835 29.9645 28.5532 29.8751 28.5174C28.9472 28.1463 28.0469 27.6725 27.1579 27.2197C26.4094 26.8383 25.6344 26.3344 24.8205 26.097C24.6832 26.057 24.6359 26.146 24.544 26.2426C24.2469 26.5549 23.9524 26.8645 23.6333 27.1551C22.9508 27.7767 22.2017 28.2666 21.4286 28.7626C21.2771 28.8598 20.8699 29.2812 20.8958 28.8566C20.9135 28.5667 21.031 27.8977 21.0654 27.6897C21.2093 26.8189 21.35 25.9453 21.5318 25.0813C21.5934 24.7887 21.737 24.4537 21.7696 24.1522C21.7907 23.9572 21.566 23.8257 21.4396 23.7245C20.7405 23.1647 20.0368 22.6341 19.41 21.9899C19.3977 21.9772 18.6783 21.2945 18.7335 21.2156C18.7527 21.1881 18.7914 21.1815 18.822 21.1677C19.0597 21.06 19.3051 20.9727 19.5483 20.8783C20.5986 20.4707 21.5756 19.9693 22.5309 19.374C22.6902 19.2748 22.9087 19.1797 23.0526 19.0533C23.1738 18.9469 23.2653 18.6725 23.331 18.5482C23.7096 17.8313 24.0956 17.1015 24.5661 16.4393C24.7786 16.1401 25.0072 15.7912 25.3182 15.5969C25.3968 15.5477 26.0085 14.9382 26.0556 15.0051C26.1056 15.0763 26.1776 15.2935 26.192 15.3369C26.347 15.8047 26.4732 16.2823 26.6067 16.7564C26.7925 17.4156 27.0554 18.0954 27.1358 18.7786C27.1506 18.9044 27.2668 18.8572 27.3736 18.8597C28.0122 18.8746 28.6382 18.9686 29.2723 19.0349C29.8556 19.0958 30.4499 19.0645 31.0291 19.1602C31.4219 19.2251 31.7118 19.3922 32.0651 19.54C32.2141 19.6022 32.0454 19.7903 31.9914 19.8865C31.6256 20.538 31.2776 21.1999 30.9093 21.8498C30.479 22.6091 30.0965 23.398 29.4327 23.9752C29.2467 24.137 29.0746 24.3158 28.9018 24.4914C28.8318 24.5625 28.7949 24.5998 28.7949 24.6979" stroke="black" stroke-width="3" stroke-linecap="round"/>
<path d="M38.9548 39.3817C38.1998 39.9308 37.5855 42.1816 37.2911 42.9108C35.8745 46.4184 34.8327 50.0845 33.2914 53.5401C33.1179 53.9292 32.7182 54.9966 32.2243 55.229C32.0596 55.3065 31.9994 55.2575 31.9134 55.0609C31.3604 53.797 31.3492 51.8777 31.1572 50.5908C30.5498 46.5217 29.7156 42.5114 28.9389 38.4742C28.9043 38.2944 28.5835 36.7205 28.6532 36.2727C28.748 35.6641 29.9885 36.2585 30.1068 36.2979C32.3876 37.0582 34.6421 37.884 36.9382 38.6002C38.126 38.9707 39.1907 39.2693 40.358 39.6926C41.5852 40.1376 42.5149 40.7567 43.6434 41.3479" stroke="black" stroke-width="5" stroke-linecap="round"/>
<path d="M60.0472 14.4781C60.0472 16.9796 59.9665 19.472 59.7456 21.9654C58.9847 30.5506 57.7084 39.106 56.6395 47.6569C56.1409 51.6459 55.6259 55.6324 55.0762 59.6148C54.7016 62.329 54.3832 65.0719 53.8078 67.7535C53.6529 68.4754 53.5604 69.2137 52.9301 69.6459C52.4127 70.0007 51.8662 69.9964 51.2571 69.8996C49.1683 69.5677 47.3572 68.3123 45.5251 67.3421C41.3344 65.1229 36.9078 64.3249 32.2439 63.7218C26.3951 62.9655 20.5317 62.3168 14.698 61.4455C12.767 61.157 10.845 60.8186 8.95219 60.3347C7.74919 60.0272 6.43884 59.7371 5.32507 59.1622C4.67768 58.8281 4.02577 58.4361 3.5218 57.9006C2.84543 57.182 2.7977 55.9291 2.67844 55.0209C2.35954 52.5924 2.50263 50.2622 2.83614 47.8421C3.25697 44.7882 3.87155 41.7649 4.44057 38.7365C5.16323 34.8905 5.80623 31.0323 6.58668 27.197C7.7515 21.4727 8.56463 15.6521 9.96696 9.98015C10.5009 7.82037 10.7271 5.60202 12.7439 4.37835C15.6516 2.61407 19.5287 3.58877 22.583 4.3852C28.5193 5.93312 34.4776 7.44168 40.4375 8.89682C45.9106 10.2331 55.7376 12.8809 61.1434 14.4781" stroke="black" stroke-width="5" stroke-linecap="round"/>
</svg>
