<svg width="95" height="84" viewBox="0 0 95 84" fill="none" xmlns="http://www.w3.org/2000/svg">
<path d="M68.4276 62.9739C68.4276 62.2144 68.305 61.5534 67.7431 60.9826C66.3093 59.5261 63.6108 57 61.4165 57C60.4783 57 59.4637 57.7436 58.7407 58.2446C57.1211 59.3667 55.8515 60.802 54.4677 62.1857C52.8572 63.7962 50.8408 66.1751 48.4523 66.5624C45.5739 67.0292 43.3521 66.3347 42.5199 63.2228C41.8263 60.6297 42.1283 57.425 38.6202 57.3734C35.7757 57.3315 33.2736 58.6708 31.4017 60.7337C30.2266 62.0288 29.6927 63.5793 28.9541 65.1312C28.3852 66.3265 27.6025 67.3519 26.7968 68.3878" stroke="black" stroke-width="5" stroke-linecap="round"/>
<path d="M65.4276 29.7966C63.7429 32.1553 62.9611 35.1631 61.0789 37.3774C60.6516 37.8802 59.2041 39.4098 58.3927 38.8539C57.5084 38.248 57.0611 37.0041 56.7177 36.0561C55.9361 33.898 55.6881 31.5811 54.7078 29.4926C54.2685 28.5567 53.6112 27.7285 53.2561 26.7816" stroke="black" stroke-width="5" stroke-linecap="round"/>
<path d="M48.0078 28.1216C47.5032 28.8582 46.964 29.5654 46.4817 30.3177C45.6017 31.6906 44.9792 33.1233 44.3229 34.6106C44.2466 34.7834 42.4908 38.4488 42.0275 38.0164C41.812 37.8153 41.6718 37.3505 41.5685 37.1045C41.2178 36.27 40.9179 35.4194 40.6317 34.561C39.9923 32.6427 39.3205 30.7768 38.4294 28.9591C37.9559 27.9931 37.4047 27.0203 37.0646 26" stroke="black" stroke-width="5" stroke-linecap="round"/>
<path d="M76.09 78.8935C72.1832 78.8935 67.991 79.7508 64.154 80.1483C55.3342 81.062 46.6304 81.8293 37.7821 81.087C33.163 80.6995 28.5781 80.0028 23.9588 79.6246C22.1807 79.4791 20.2074 79.2088 18.4255 79.516C18.0436 79.5818 17.4689 79.7623 17.1806 79.3875C16.7451 78.8214 16.5401 77.9838 16.3703 77.3323C15.6523 74.577 15.2233 71.7471 14.6906 68.9534C13.6262 63.3712 12.3678 57.831 10.7778 52.3733C8.60823 44.9265 6.2213 37.4143 3.41656 30.181C3.22903 29.6974 2.54545 28.5864 2.8336 27.9381C2.98044 27.6077 3.79716 27.3262 4.0687 27.1674C6.99209 25.4575 10.189 24.4605 13.3764 23.3632C23.2717 19.9567 33.1833 16.2586 42.6336 11.7533C46.0861 10.1073 49.5161 8.42852 52.9096 6.66464C55.0455 5.55446 57.3396 4.60953 59.3914 3.34468C59.9713 2.98724 60.3952 2.45702 61.1305 2.92969C61.7327 3.31682 62.6826 4.16742 63.1066 4.55014C65.5578 6.76268 67.9229 9.07664 70.2109 11.4568C76.0474 17.5285 81.5781 23.9048 87.2257 30.1514C88.5851 31.655 89.9778 33.1298 91.2867 34.6768C91.4384 34.856 91.5943 35.019 91.6425 35.2597C91.8237 36.1662 90.8081 37.6117 90.4568 38.303C88.5009 42.1513 86.6904 45.9737 85.0816 49.9822C82.2611 57.0098 79.2975 63.9648 76.426 70.969C75.2999 73.7159 75.0229 75.9911 75.0229 78.8935" stroke="black" stroke-width="5" stroke-linecap="round"/>
</svg>
