<svg width="106" height="106" viewBox="0 0 106 106" fill="none" xmlns="http://www.w3.org/2000/svg">
<path d="M44.6529 89.2272C44.4322 85.4019 43.5771 81.6642 43.4739 77.8153C43.3195 72.0601 43.2298 63.0407 48.4639 59.1816C51.0007 57.3113 54.7292 57.749 56.9912 59.8765C58.6275 61.4155 59.7723 63.7332 60.76 65.7087C62.302 68.7926 63.1454 71.9426 63.4761 75.373C63.9636 80.4297 64.0849 85.7708 63.2235 90.7958C62.8401 93.0319 63.0154 93.3961 60.8969 93.3961C56.36 93.3961 51.3587 93.9517 46.9269 92.8065C45.1061 92.3361 42.8598 91.3258 42 89.6062" stroke="black" stroke-width="5" stroke-linecap="round"/>
<path d="M32.7868 18.3432C29.0708 18.6291 25.8442 20.8414 23.9354 23.9812C22.5066 26.3314 22.7857 28.2374 24.8783 30.0136C27.306 32.0744 30.7252 32.4737 33.7201 31.5241C37.8033 30.2295 42.5254 25.2188 41.8403 20.5753C41.564 18.7029 38.6989 19.0359 37.3472 19.0359C34.8294 19.0359 32.3094 19.2353 29.8427 19.7287" stroke="black" stroke-width="5" stroke-linecap="round"/>
<path d="M70.5401 18.17C67.449 19.5439 64.3121 21.8843 62.0735 24.3949C60.5353 26.1199 59.4761 28.0152 61.5347 29.6961C63.5272 31.3231 66.509 31.0487 68.8852 30.7641C71.2914 30.4759 73.9952 29.813 75.4661 27.6949C76.6652 25.9682 75.7735 23.3483 75.139 21.5759C74.2239 19.0201 72.969 18.5919 70.3957 18.7088C68.6817 18.7867 67.0077 19.1775 65.3447 19.5555" stroke="black" stroke-width="5" stroke-linecap="round"/>
<path d="M5.55041 41.858C10.056 44.8617 13.9904 48.3548 18.171 51.7801C19.3714 52.7637 28.9732 58.8522 27.9893 60.0001C26.4529 61.7925 27.2212 65.4182 27.2212 67.5143C27.2212 74.3159 27.4476 81.0697 27.8855 87.8567C28.0663 90.6593 26.7123 97.6965 30.0443 99.211C32.791 100.46 36.911 100.801 39.8418 101.224C48.2829 102.443 56.9481 102.387 65.4566 102.387C67.8367 102.387 70.2169 102.387 72.5971 102.387C74.2093 102.387 78.9305 102.965 77.4336 102.366C75.748 101.692 75.7438 96.7104 75.6277 95.4331C75.0921 89.5414 75.5811 83.6209 74.8805 77.727C74.4209 73.8614 74.2992 70.1153 74.2992 66.2273C74.2992 63.4158 73.7745 63.9022 76.0429 62.8854C77.9083 62.0492 79.6139 60.6043 81.3568 59.5434C85.299 57.1438 89.4807 55.2655 93.4792 52.9841C96.2426 51.4073 99.2036 49.67 101.782 47.7947C102.979 46.9246 103.52 46.3387 102.322 45.7397C101.24 45.199 101.014 43.8721 100.744 42.8129C99.9399 39.6548 99.2434 36.493 98.3779 33.3475C96.5965 26.8726 95.9212 20.4462 95.0567 13.8354C94.9156 12.756 94.9514 9.5343 94.0604 8.77058C93.6418 8.41184 91.4272 9.08589 90.9052 9.16498C84.9271 10.0708 78.9569 7.55987 73.2406 6.21741C64.6786 4.20664 56.4775 3 47.6881 3C37.4052 3 27.1324 3.37363 16.8425 3.37363C15.7233 3.37363 14.6272 3.04594 13.9364 3.93409C13.4796 4.52147 10.8803 5.18527 10.1171 5.24181C8.71129 5.34594 3.55965 7.82476 3.35012 9.08195C1.74902 18.6885 6.15019 27.6443 6.29768 37.0838C6.34015 39.802 6.82312 42.2199 6.29768 44.8471" stroke="black" stroke-width="5" stroke-linecap="round"/>
</svg>
