<svg width="84" height="72" viewBox="0 0 84 72" fill="none" xmlns="http://www.w3.org/2000/svg">
<path d="M64.6963 49.9739C64.6963 49.2144 64.5737 48.5534 64.0118 47.9826C62.578 46.5261 59.8795 44 57.6852 44C56.747 44 55.7324 44.7436 55.0094 45.2446C53.3898 46.3667 52.1201 47.802 50.7364 49.1857C49.1259 50.7962 47.1095 53.1751 44.721 53.5624C41.8426 54.0292 39.6208 53.3347 38.7885 50.2228C38.095 47.6297 38.397 44.425 34.8889 44.3734C32.0443 44.3315 29.5423 45.6708 27.6704 47.7337C26.4952 49.0288 25.9614 50.5793 25.2228 52.1312C24.6539 53.3265 23.8712 54.3519 23.0655 55.3878" stroke="black" stroke-width="5" stroke-linecap="round"/>
<path d="M59.9497 22C62.9051 22.2091 65.4713 23.8275 66.9894 26.1245C68.1257 27.8438 67.9037 29.2382 66.2395 30.5376C64.3086 32.0452 61.5893 32.3373 59.2075 31.6426C55.96 30.6955 52.2045 27.0299 52.7494 23.6329C52.9691 22.2632 55.2477 22.5068 56.3227 22.5068C58.3252 22.5068 60.3294 22.6526 62.2912 23.0135" stroke="black" stroke-width="4" stroke-linecap="round"/>
<path d="M30.9229 22C33.2906 22.9652 35.6934 24.6095 37.4082 26.3733C38.5865 27.5853 39.3979 28.9168 37.821 30.0978C36.2947 31.2408 34.0107 31.048 32.1905 30.8481C30.3473 30.6456 28.2762 30.1799 27.1495 28.6918C26.231 27.4787 26.914 25.638 27.4001 24.3928C28.101 22.5972 29.0623 22.2964 31.0334 22.3785C32.3464 22.4333 33.6286 22.7078 34.9025 22.9734" stroke="black" stroke-width="4" stroke-linecap="round"/>
<path d="M60.067 67.6437C51.2606 67.6437 42.4488 67.4863 33.6395 67.4863C31.4733 67.4863 29.2409 67.612 27.0785 67.3988C26.131 67.3054 25.8007 66.3994 25.2152 65.7367C23.5088 63.8055 21.527 62.1359 19.599 60.4354C15.8157 57.0986 12.0895 53.6988 8.27917 50.3928C6.91881 49.2125 5.54588 48.0462 4.33385 46.7099C4.12795 46.4829 3.82901 46.1861 3.73025 45.8789C3.46625 45.0575 3.39797 44.1296 3.37158 43.272C3.33222 41.9927 3.23376 40.7221 3.24911 39.4404C3.28319 36.5941 3.7874 33.85 4.18514 31.0423C4.39241 29.5793 4.51029 28.1074 4.60504 26.6334C4.67833 25.4933 4.83809 25.262 5.75977 24.4464C12.1869 18.7587 19.1033 13.4289 24.7865 6.96802C25.8033 5.81214 26.6471 4.66434 27.3672 3.32013C27.5024 3.06765 27.7385 2.99597 28.0145 2.96146C28.5873 2.88986 29.1862 3.01981 29.7466 3.11892C31.4264 3.41603 33.1031 3.69186 34.8029 3.85375C37.6371 4.12367 40.4972 4.02871 43.3409 4.02871C44.9825 4.02871 46.6696 3.95945 48.2573 3.87125C50.2192 3.76225 52.1331 3.39886 54.1184 3.39886C56.0021 3.39886 57.8858 3.39886 59.7695 3.39886C60.2671 3.39886 61.0109 3.27085 61.4841 3.50383C62.6356 4.07068 63.736 5.28025 64.7209 6.07573C69.1623 9.66299 73.4035 13.5774 78.1227 16.8007C78.6708 17.175 80.0877 17.7695 80.4672 18.3928C80.5429 18.5173 80.5363 19.0522 80.5372 19.0927C80.5581 20.0987 80.586 21.1047 80.6071 22.1107C80.6934 26.2211 80.2347 30.3093 80.5372 34.4191C80.6374 35.7807 81.0095 37.1991 81.0095 38.5568C81.0095 39.5353 81.3073 40.4533 81.3245 41.4349C81.3314 41.8303 81.4286 42.2137 81.4469 42.6071C81.4979 43.7027 80.4464 44.5823 79.8548 45.389C78.1527 47.71 76.8158 50.2837 75.0085 52.5273C73.5974 54.279 71.9226 55.8328 70.407 57.4961C69.0728 58.9605 67.6889 60.5426 66.208 61.8526C64.8827 63.025 63.6007 64.5577 62.5864 65.9991C61.6732 67.2969 60.7545 67.9986 59.2797 68.5885" stroke="black" stroke-width="5" stroke-linecap="round"/>
</svg>
