<svg width="64" height="66" viewBox="0 0 64 66" fill="none" xmlns="http://www.w3.org/2000/svg">
<path d="M41.9868 38.13C41.9274 41.1223 41.4658 44.1881 40.1718 47.0568C39.2031 49.2043 37.8029 51.1506 35.406 52.7336C33.7673 53.8159 31.0341 55.146 28.5705 54.987C26.7968 54.8725 25.5234 53.9434 24.6433 52.9792C22.4671 50.5948 21.5272 47.582 21.13 44.8251C20.8718 43.0333 20.9601 41.2596 21.4166 39.4878C21.5934 38.8017 21.7409 38.4504 22.3082 38" stroke="black" stroke-width="5" stroke-linecap="round"/>
<path d="M36.891 4.38055C46.9005 10.5836 54.5495 21.5114 58.7474 32.3098C61.4866 39.356 62.5053 46.7195 57.1389 52.7982C50.3261 60.5154 38.6464 62.5051 28.8941 62.8846C22.0879 63.1495 14.0877 62.583 8.93173 57.4731C1.53507 50.1425 1.74761 37.8576 5.79007 29.0028C10.1213 19.5152 18.2771 11.2917 27.3307 6.22947C30.6011 4.40088 33.041 3.4353 36.6655 3.05774C39.7425 2.73722 40.9893 3.81799 43.6554 4.65112" stroke="black" stroke-width="5" stroke-linecap="round"/>
<path d="M41.7752 22.0391C42.5624 23.1937 43.9673 23.7539 44.7962 24.8677C45.6478 26.0119 43.4117 26.3438 42.6988 26.3205C41.2679 26.2735 39.6735 25.3143 39.6008 23.7516C39.5631 22.9419 40.0434 23.0978 40.0434 23.7709" stroke="black" stroke-width="5" stroke-linecap="round"/>
<path d="M24.8036 21C25.7447 21.732 26.2612 23.0584 26.112 24.2519C25.9015 25.9365 23.5591 25.9851 22.2828 25.7336C20.8544 25.4521 20.6005 24.4039 21.1187 23.1648C21.4997 22.2537 22.1454 21.8485 22.8986 21.3464" stroke="black" stroke-width="5" stroke-linecap="round"/>
</svg>
