<svg width="640" height="512" viewBox="0 0 640 512" fill="none" xmlns="http://www.w3.org/2000/svg">
<path d="M96 128C96 94.0523 109.486 61.495 133.49 37.4903C157.495 13.4857 190.052 0 224 0C257.948 0 290.505 13.4857 314.51 37.4903C338.514 61.495 352 94.0523 352 128C352 161.948 338.514 194.505 314.51 218.51C290.505 242.514 257.948 256 224 256C190.052 256 157.495 242.514 133.49 218.51C109.486 194.505 96 161.948 96 128ZM0 482.3C0 383.8 79.8 304 178.3 304H269.7C368.2 304 448 383.8 448 482.3C448 498.7 434.7 512 418.3 512H29.7C13.3 512 0 498.7 0 482.3ZM609.3 512H471.5C476.9 502.6 480.1 491.7 480.1 480V472C480.1 411.3 453 356.8 410.3 320.2C412.7 320.1 415 320 417.4 320H478.8C567.8 320 640 392.2 640 481.3C640 498.3 626.2 512 609.3 512ZM432 256C401 256 373 243.4 352.7 223.1C372.4 196.5 384 163.6 384 128C384 101.2 377.4 75.9 365.7 53.7C384.3 40.1 407.2 32 432 32C493.9 32 544 82.1 544 144C544 205.9 493.9 256 432 256Z" fill="white"/>
</svg>
