<svg width="576" height="512" viewBox="0 0 576 512" fill="none" xmlns="http://www.w3.org/2000/svg">
<path d="M320 31.9538C320 22.0538 315.5 12.7538 307.7 6.75384C299.9 0.753839 289.8 -1.44616 280.2 0.953839L100.3 45.9538C79 51.2538 64 70.4538 64 92.4538V447.954H32C14.3 447.954 0 462.254 0 479.954C0 497.654 14.3 511.954 32 511.954H96H288H320V479.954V31.9538ZM256 255.954C256 273.654 245.3 287.954 232 287.954C218.7 287.954 208 273.654 208 255.954C208 238.254 218.7 223.954 232 223.954C245.3 223.954 256 238.254 256 255.954ZM352 127.954H448V479.954C448 497.654 462.3 511.954 480 511.954H544C561.7 511.954 576 497.654 576 479.954C576 462.254 561.7 447.954 544 447.954H512V127.954C512 92.6538 483.3 63.9538 448 63.9538H352V127.954Z" fill="white"/>
</svg>
