<svg width="389" height="389" viewBox="0 0 389 389" fill="none" xmlns="http://www.w3.org/2000/svg">
<mask id="path-1-inside-1_252_9" fill="white">
<path d="M0 44C0 37.3726 5.37258 32 12 32H345C351.627 32 357 37.3726 357 44V377C357 383.627 351.627 389 345 389H12C5.37258 389 0 383.627 0 377V44Z"/>
</mask>
<path d="M0 32H357H0ZM357 377C357 401.301 337.301 421 313 421H12C-12.3005 421 -32 401.301 -32 377L32 357H345C351.627 357 357 357 357 357V377ZM12 421C-12.3005 421 -32 401.301 -32 377V76C-32 51.6995 -12.3005 32 12 32H32C32 32 32 37.3726 32 44V357L12 421ZM357 32V389V32Z" fill="white" mask="url(#path-1-inside-1_252_9)"/>
<mask id="path-3-inside-2_252_9" fill="white">
<path d="M389 345C389 351.627 383.627 357 377 357L44 357C37.3726 357 32 351.627 32 345L32 12C32 5.37255 37.3726 -3.07402e-05 44 -3.01609e-05L377 -1.04907e-06C383.627 -4.69686e-07 389 5.37258 389 12L389 345Z"/>
</mask>
<path d="M389 357L32 357L389 357ZM32 12C32 -12.3006 51.6995 -32 76 -32L377 -32C401.301 -32 421 -12.3005 421 12L357 32L44 32C37.3726 32 32 32 32 32L32 12ZM377 -32C401.301 -32 421 -12.3005 421 12L421 313C421 337.301 401.301 357 377 357L357 357C357 357 357 351.627 357 345L357 32L377 -32ZM32 357L32 -3.12099e-05L32 357Z" fill="white" mask="url(#path-3-inside-2_252_9)"/>
<path d="M164.79 123.696C188.001 123.696 206.347 126.939 219.83 133.424C233.483 139.739 243.809 146.821 250.806 154.672C256.438 161.157 261.046 168.667 264.63 177.2C268.214 185.563 270.006 195.632 270.006 207.408C270.006 216.112 268.043 225.243 264.118 234.8C260.193 244.187 255.073 251.781 248.758 257.584C242.102 263.899 235.787 269.019 229.814 272.944C224.011 276.869 216.075 280.112 206.006 282.672C196.107 285.061 183.478 286.256 168.118 286.256C156.513 286.256 146.017 284.976 136.63 282.416C127.243 279.685 122.55 275.163 122.55 268.848C122.55 266.288 123.659 264.325 125.878 262.96C128.267 261.424 130.827 260.656 133.558 260.656C135.094 260.656 136.118 260.741 136.63 260.912C137.825 249.648 138.422 237.701 138.422 225.072C138.422 210.907 138.081 199.216 137.398 190C136.715 180.613 135.777 171.312 134.582 162.096C134.411 160.901 133.985 157.573 133.302 152.112C132.79 146.651 132.534 141.104 132.534 135.472C132.534 131.888 134.326 128.901 137.91 126.512C141.494 123.952 145.163 122.672 148.918 122.672C151.137 122.672 154.123 122.843 157.878 123.184C160.95 123.525 163.254 123.696 164.79 123.696ZM161.462 262.192C165.558 262.875 170.934 263.216 177.59 263.216C188.854 263.216 199.521 260.912 209.59 256.304C219.659 251.525 227.766 244.955 233.91 236.592C240.054 228.059 243.126 218.245 243.126 207.152C243.126 195.547 241.078 185.648 236.982 177.456C232.886 169.264 226.571 162.523 218.038 157.232C211.723 153.307 203.958 150.491 194.742 148.784C185.526 146.907 174.433 145.968 161.462 145.968C161.462 150.064 161.718 155.184 162.23 161.328C162.23 163.376 162.401 166.96 162.742 172.08C163.766 191.877 164.278 207.835 164.278 219.952C164.278 237.531 163.339 251.611 161.462 262.192Z" fill="white"/>
</svg>
