<svg width="264" height="350" viewBox="0 0 264 350" fill="none" xmlns="http://www.w3.org/2000/svg">
<g filter="url(#filter0_d_44_106)">
<path d="M132 0C206.867 67.5333 260 147.267 260 200.333C260 283.333 207.333 341.333 132 341.333C56.6667 341.333 3.99999 283.333 3.99999 200.333C3.99999 147.067 57.4667 67.2667 132 0ZM132 298.667C169.667 298.667 196 272.667 196 235.467C196 226.467 192.933 194.467 132 128C71.0667 194.467 68 226.467 68 235.467C68 272.667 94.3333 298.667 132 298.667Z" fill="#D37028"/>
<g filter="url(#filter1_d_44_106)">
<path d="M196.285 236.922C196.285 271.056 168.614 298.727 134.479 298.727C100.448 298.727 72.8413 285.076 65.8694 237.357C65.8279 237.073 65.8176 236.769 65.8393 236.483C69.4594 188.767 89.9678 174.969 131.046 127.045C165.382 164.815 192.852 192.284 196.285 236.922Z" fill="#E6E047"/>
</g>
</g>
<defs>
<filter id="filter0_d_44_106" x="0" y="0" width="264" height="349.333" filterUnits="userSpaceOnUse" color-interpolation-filters="sRGB">
<feFlood flood-opacity="0" result="BackgroundImageFix"/>
<feColorMatrix in="SourceAlpha" type="matrix" values="0 0 0 0 0 0 0 0 0 0 0 0 0 0 0 0 0 0 127 0" result="hardAlpha"/>
<feOffset dy="4"/>
<feGaussianBlur stdDeviation="2"/>
<feComposite in2="hardAlpha" operator="out"/>
<feColorMatrix type="matrix" values="0 0 0 0 0 0 0 0 0 0 0 0 0 0 0 0 0 0 0.25 0"/>
<feBlend mode="normal" in2="BackgroundImageFix" result="effect1_dropShadow_44_106"/>
<feBlend mode="normal" in="SourceGraphic" in2="effect1_dropShadow_44_106" result="shape"/>
</filter>
<filter id="filter1_d_44_106" x="61.8282" y="125.045" width="138.457" height="179.682" filterUnits="userSpaceOnUse" color-interpolation-filters="sRGB">
<feFlood flood-opacity="0" result="BackgroundImageFix"/>
<feColorMatrix in="SourceAlpha" type="matrix" values="0 0 0 0 0 0 0 0 0 0 0 0 0 0 0 0 0 0 127 0" result="hardAlpha"/>
<feOffset dy="2"/>
<feGaussianBlur stdDeviation="2"/>
<feComposite in2="hardAlpha" operator="out"/>
<feColorMatrix type="matrix" values="0 0 0 0 0 0 0 0 0 0 0 0 0 0 0 0 0 0 0.25 0"/>
<feBlend mode="normal" in2="BackgroundImageFix" result="effect1_dropShadow_44_106"/>
<feBlend mode="normal" in="SourceGraphic" in2="effect1_dropShadow_44_106" result="shape"/>
</filter>
</defs>
</svg>
