<svg width="104" height="104" viewBox="0 0 104 104" fill="none" xmlns="http://www.w3.org/2000/svg">
<circle cx="52" cy="52" r="51" fill="#EB6363" stroke="#E04B4B" stroke-width="2"/>
<path d="M56.3179 32.86C56.3179 35.848 56.1519 40.2193 55.8199 45.974C55.4879 51.5073 55.3219 55.7403 55.3219 58.673C55.3219 59.4477 55.3773 61.0523 55.4879 63.487C55.4326 64.4277 55.1006 65.147 54.4919 65.645C53.8833 66.0877 53.1639 66.309 52.3339 66.309C51.4486 66.309 50.6463 66.0877 49.9269 65.645C49.2076 65.2023 48.7649 64.6213 48.5989 63.902C47.9349 59.3647 47.6029 53.942 47.6029 47.634L47.6859 34.686C47.6859 32.6387 47.9349 30.9787 48.4329 29.706C48.9863 28.378 50.1483 27.714 51.9189 27.714C53.4129 27.714 54.5196 28.212 55.2389 29.208C55.9583 30.1487 56.3179 31.366 56.3179 32.86ZM51.9189 70.625C55.6816 70.625 57.5629 72.036 57.5629 74.858C57.5629 76.2967 57.0926 77.6247 56.1519 78.842C55.2666 80.004 54.1323 80.585 52.7489 80.585C51.0889 80.585 49.7333 80.087 48.6819 79.091C47.6306 78.0397 47.1049 76.8223 47.1049 75.439C47.1049 74.2217 47.5476 73.115 48.4329 72.119C49.3736 71.123 50.5356 70.625 51.9189 70.625Z" fill="white"/>
</svg>
