<svg width="284" height="284" viewBox="0 0 284 284" fill="none" xmlns="http://www.w3.org/2000/svg">
<path d="M91.2857 284H30.4286C13.6295 284 0 270.371 0 253.571V30.4286C0 13.6295 13.6295 0 30.4286 0H91.2857C108.085 0 121.714 13.6295 121.714 30.4286V142V197.786V253.571C121.714 270.371 108.085 284 91.2857 284ZM284 253.571V30.4286C284 13.6295 270.371 0 253.571 0H192.714C175.915 0 162.286 13.6295 162.286 30.4286V142V253.571C162.286 270.371 175.915 284 192.714 284H253.571C270.371 284 284 270.371 284 253.571Z" fill="white"/>
</svg>
