<svg width="640" height="509" viewBox="0 0 640 509" fill="none" xmlns="http://www.w3.org/2000/svg">
<rect x="129" y="126" width="349" height="326" fill="black"/>
<path d="M320 0C337.7 0 352 11.3 352 29V93H472C511.8 93 544 125.2 544 165V437C544 476.8 511.8 509 472 509H168C128.2 509 96 476.8 96 437V165C96 125.2 128.2 93 168 93H288V29C288 11.3 302.3 0 320 0ZM208 381C199.2 381 192 388.2 192 397C192 405.8 199.2 416.5 208 416.5L432 413C440.8 413 448 405.8 448 397C448 388.2 440.8 381 432 381H208ZM264 253C264 242.391 259.786 232.217 252.284 224.716C244.783 217.214 234.609 213 224 213C213.391 213 203.217 217.214 195.716 224.716C188.214 232.217 184 242.391 184 253C184 263.609 184 253 214.5 262.5C214.5 293 213.391 293 224 293C234.609 293 244.783 288.786 252.284 281.284C259.786 273.783 264 263.609 264 253ZM416 293C426.609 293 436.783 288.786 444.284 281.284C451.786 273.783 456 263.609 456 253C456 242.391 432 244 416 253C416 240 426.609 213 416 213C405.391 213 395.217 217.214 387.716 224.716C380.214 232.217 376 242.391 376 253C376 263.609 380.214 273.783 387.716 281.284C395.217 288.786 405.391 293 416 293ZM48 221H64V413H48C21.5 413 0 391.5 0 365V269C0 242.5 21.5 221 48 221ZM592 221C618.5 221 640 242.5 640 269V365C640 391.5 618.5 413 592 413H576V221H592Z" fill="white"/>
</svg>
