<svg width="629" height="490" viewBox="0 0 629 490" fill="none" xmlns="http://www.w3.org/2000/svg">
<path d="M0.287842 53.1875V105.5C0.287842 124.79 15.8788 140.375 35.1767 140.375H52.6212H104.955V53.1875C104.955 24.3066 81.5135 0.875 52.6212 0.875C23.7288 0.875 0.287842 24.3066 0.287842 53.1875ZM122.399 0.875C133.302 15.4789 139.843 33.5703 139.843 53.1875V384.5C139.843 422.971 171.134 454.25 209.621 454.25C248.108 454.25 279.399 422.971 279.399 384.5V378.724C279.399 343.413 308.073 314.75 343.398 314.75H523.621V105.5C523.621 47.7383 476.739 0.875 418.955 0.875H122.399ZM506.177 489.125C573.665 489.125 628.288 434.524 628.288 367.062C628.288 357.472 620.438 349.625 610.843 349.625H343.398C327.371 349.625 314.288 362.594 314.288 378.724V384.5C314.288 442.262 267.406 489.125 209.621 489.125H401.51H506.177Z" fill="white"/>
</svg>
