<svg width="226" height="329" viewBox="0 0 226 329" fill="none" xmlns="http://www.w3.org/2000/svg">
<path d="M113.302 0C62.0413 0 28.8393 21.0142 2.77231 58.4913C-1.95634 65.2898 -0.498506 74.611 6.09771 79.6154L33.8017 100.634C40.4634 105.687 49.9419 104.506 55.1573 97.9681C71.2442 77.8034 83.1773 66.1933 108.305 66.1933C128.063 66.1933 152.5 78.9157 152.5 98.0851C152.5 112.576 140.544 120.019 121.036 130.962C98.2867 143.724 68.1822 159.605 68.1822 199.335V205.625C68.1822 214.142 75.0828 221.047 83.5954 221.047H130.138C138.65 221.047 145.551 214.142 145.551 205.625V201.915C145.551 174.374 226 173.228 226 98.7C226.001 42.5747 167.814 0 113.302 0ZM106.867 239.977C82.3366 239.977 62.3797 259.945 62.3797 284.489C62.3797 309.032 82.3366 329 106.867 329C131.397 329 151.354 309.032 151.354 284.488C151.354 259.944 131.397 239.977 106.867 239.977Z" fill="white"/>
</svg>
