<svg width="399" height="153" viewBox="0 0 399 153" fill="none" xmlns="http://www.w3.org/2000/svg">
<path d="M12 107.071C12.2453 106.396 13.0751 105.779 13.4882 105.352C17.2047 101.511 20.8315 97.5882 24.4504 93.656C30.3866 87.2058 36.4781 81.1454 43.3355 75.6512C49.09 71.0407 55.7651 66.393 62.9124 64.2488C70.617 61.9374 80.3119 62.4352 88.1275 63.9344C104.754 67.1238 119.277 75.4811 133.905 83.6161C152.901 94.1807 171.319 108.251 194.249 106.253C203.392 105.456 212.426 102.646 220.03 97.4708C228.166 91.9342 235.771 85.686 243.401 79.4869C258.458 67.2534 274.915 55.4116 292.888 47.816C300.235 44.7109 308.324 42.4424 316.259 41.5908C327.104 40.4269 337.477 43.2284 347.447 47.2501C356.019 50.7076 364.632 54.4276 372.705 58.9459C377.319 61.5286 381.788 65.0444 386.266 67.4557" stroke="black" stroke-width="24" stroke-linecap="round"/>
<g filter="url(#filter0_d_208_23)">
<mask id="path-2-inside-1_208_23" fill="white">
<path d="M136.57 23.9318C137.288 17.3434 143.211 12.5844 149.799 13.3023L191.949 17.8951C198.538 18.613 203.297 24.5359 202.579 31.1244L197.986 73.2747C197.268 79.8631 191.345 84.6221 184.757 83.9042L142.606 79.3114C136.018 78.5935 131.259 72.6706 131.977 66.0821L136.57 23.9318Z"/>
</mask>
<path d="M136.57 23.9318C137.288 17.3434 143.211 12.5844 149.799 13.3023L191.949 17.8951C198.538 18.613 203.297 24.5359 202.579 31.1244L197.986 73.2747C197.268 79.8631 191.345 84.6221 184.757 83.9042L142.606 79.3114C136.018 78.5935 131.259 72.6706 131.977 66.0821L136.57 23.9318Z" fill="white"/>
<path d="M137.87 12.0024L203.879 19.195L137.87 12.0024ZM197.986 73.2747C196.909 83.1573 188.025 90.2958 178.142 89.219L147.921 85.926C138.039 84.8492 130.9 75.9648 131.977 66.0822C131.618 69.3764 136.668 72.6288 143.256 73.3467L185.407 77.9395C191.995 78.6574 197.627 76.5689 197.986 73.2747ZM130.677 78.0115L137.87 12.0024L130.677 78.0115ZM203.879 19.195L196.686 85.2041L203.879 19.195Z" fill="#9F9D9D" mask="url(#path-2-inside-1_208_23)"/>
<path d="M164.981 64.3759C162.651 64.1221 160.47 63.295 158.438 61.8948C156.421 60.4962 154.84 58.5636 153.694 56.0968C152.548 53.6301 152.071 50.6546 152.262 47.1704L152.361 46.0495C152.657 43.3312 153.319 41.0064 154.347 39.0751C155.391 37.13 156.663 35.5554 158.162 34.3512C159.676 33.1488 161.324 32.3067 163.105 31.825C164.887 31.3432 166.678 31.2005 168.48 31.3969C170.282 31.5932 172.008 32.127 173.657 32.9983C175.324 33.8558 176.768 35.0347 177.987 36.5351C179.224 38.0215 180.145 39.8115 180.75 41.905C181.355 43.9984 181.513 46.3733 181.223 49.0294C181.149 49.7129 181.041 50.4162 180.899 51.1395C180.23 54.3987 179.069 57.0463 177.417 59.0825C175.78 61.1203 173.861 62.5772 171.659 63.4533C169.459 64.3138 167.233 64.6214 164.981 64.3759ZM166.907 48.8605C167.668 48.9434 168.256 48.6696 168.671 48.0389C169.087 47.3926 169.342 46.6346 169.437 45.7648C169.554 44.693 169.451 43.6915 169.128 42.7605C168.821 41.8311 168.298 41.2869 167.561 41.128C166.878 41.0536 166.262 41.4422 165.713 42.2941C165.18 43.1476 164.858 44.0869 164.746 45.1121C164.653 45.9664 164.749 46.747 165.033 47.4539C165.357 48.2279 165.982 48.6968 166.907 48.8605Z" fill="black"/>
</g>
<g filter="url(#filter1_d_208_23)">
<mask id="path-5-inside-2_208_23" fill="white">
<path d="M208.771 38.5675C208.345 31.9538 213.361 26.247 219.975 25.8211L262.287 23.0962C268.901 22.6703 274.608 27.6865 275.034 34.3002L277.823 77.6103C278.249 84.224 273.233 89.9308 266.619 90.3567L224.307 93.0816C217.693 93.5075 211.986 88.4913 211.56 81.8776L208.771 38.5675Z"/>
</mask>
<path d="M208.771 38.5675C208.345 31.9538 213.361 26.247 219.975 25.8211L262.287 23.0962C268.901 22.6703 274.608 27.6865 275.034 34.3002L277.823 77.6103C278.249 84.224 273.233 89.9308 266.619 90.3567L224.307 93.0816C217.693 93.5075 211.986 88.4913 211.56 81.8776L208.771 38.5675Z" fill="white"/>
<path d="M208 26.5923L274.263 22.325L208 26.5923ZM277.823 77.6103C278.462 87.5309 270.937 96.091 261.017 96.7299L230.68 98.6836C220.759 99.3224 212.199 91.7981 211.56 81.8776C211.773 85.1844 217.307 87.5199 223.921 87.094L266.233 84.3691C272.847 83.9432 278.036 80.9172 277.823 77.6103ZM212.332 93.8528L208 26.5923L212.332 93.8528ZM274.263 22.325L278.594 89.5855L274.263 22.325Z" fill="#9F9D9D" mask="url(#path-5-inside-2_208_23)"/>
<path d="M237.935 75.3137C236.625 75.398 235.407 75.2025 234.28 74.727C233.154 74.2516 232.468 73.5677 232.223 72.6753C231.169 67.7485 230.45 62.2912 230.064 56.3036C229.857 53.0915 229.817 50.1506 229.942 47.4807C230.12 45.6217 231.092 44.1735 232.857 43.136C234.637 42.0976 236.744 41.5 239.176 41.3434C241.5 41.1937 243.865 41.4563 246.273 42.1311C248.681 42.8059 250.74 43.9102 252.452 45.444C254.297 47.1101 255.345 49.2816 255.596 51.9585C255.7 53.5802 255.395 55.1578 254.679 56.6913C253.978 58.2082 252.856 59.5018 251.312 60.5719C253.025 62.1213 254.711 63.7429 256.37 65.4367C257.061 66.2063 257.433 66.9887 257.484 67.784C257.551 68.8287 257.186 69.8386 256.387 70.8138C255.604 71.788 254.639 72.6017 253.491 73.255C252.342 73.8926 251.269 74.2436 250.271 74.3079C249.257 74.3731 248.513 74.1158 248.037 73.5358L244.338 68.9828C243.83 68.3892 243.491 68.098 243.319 68.109C243.116 68.1221 243.036 68.456 243.078 69.1109L243.176 70.2555C243.217 71.3802 242.994 72.3026 242.508 73.0228C242.022 73.7431 241.369 74.294 240.548 74.6757C239.726 75.0418 238.855 75.2544 237.935 75.3137ZM242.649 54.4129C243.189 54.2998 243.584 53.9847 243.832 53.4676C244.08 52.935 244.184 52.3646 244.145 51.7565C244.108 51.1796 243.942 50.6736 243.648 50.2384C243.368 49.7867 242.963 49.5779 242.433 49.6121C242.262 49.6231 242.134 49.7096 242.051 49.8716C241.966 50.0179 241.938 50.3094 241.966 50.746L242.141 53.4591C242.183 54.114 242.352 54.4319 242.649 54.4129Z" fill="black"/>
</g>
<g filter="url(#filter2_d_208_23)">
<mask id="path-8-inside-3_208_23" fill="white">
<path d="M286.813 13.9664C287.309 7.35753 293.068 2.40189 299.677 2.89765L341.958 6.06931C348.567 6.56507 353.523 12.3245 353.027 18.9333L349.781 62.2115C349.285 68.8204 343.525 73.776 336.917 73.2803L294.636 70.1086C288.027 69.6129 283.071 63.8534 283.567 57.2446L286.813 13.9664Z"/>
</mask>
<path d="M286.813 13.9664C287.309 7.35753 293.068 2.40189 299.677 2.89765L341.958 6.06931C348.567 6.56507 353.523 12.3245 353.027 18.9333L349.781 62.2115C349.285 68.8204 343.525 73.776 336.917 73.2803L294.636 70.1086C288.027 69.6129 283.071 63.8534 283.567 57.2446L286.813 13.9664Z" fill="white"/>
<path d="M287.711 2L353.925 6.96696L287.711 2ZM349.781 62.2115C349.037 72.1248 340.398 79.5583 330.485 78.8146L300.17 76.5406C290.257 75.797 282.823 67.1579 283.567 57.2446C283.319 60.549 288.476 63.6297 295.084 64.1254L337.365 67.2971C343.974 67.7928 349.533 65.516 349.781 62.2115ZM282.669 69.211L287.711 2L282.669 69.211ZM353.925 6.96696L348.883 74.1779L353.925 6.96696Z" fill="#9F9D9D" mask="url(#path-8-inside-3_208_23)"/>
<path d="M312.809 54.687C311.126 54.5608 309.695 54.2106 308.516 53.6364C307.353 53.0634 306.655 52.3373 306.423 51.4581C305.93 49.2588 305.623 46.7679 305.503 43.9855C305.383 41.2031 305.431 38.3706 305.647 35.4881C305.957 31.3591 306.605 27.514 307.593 23.9529C307.935 22.9444 308.767 22.1999 310.088 21.7192C311.409 21.2385 312.973 21.066 314.78 21.2016C316.214 21.3091 317.71 21.625 319.269 22.1494C320.844 22.6593 322.347 23.4066 323.778 24.3914C325.225 25.3617 326.505 26.5781 327.617 28.0404C328.73 29.5027 329.58 31.2196 330.169 33.191C330.757 35.1624 330.956 37.418 330.766 39.9577C330.59 42.2949 330.078 44.317 329.23 46.0239C328.396 47.7319 327.34 49.1726 326.061 50.3459C324.784 51.5035 323.383 52.417 321.86 53.0862C320.353 53.7565 318.814 54.2208 317.243 54.4791C315.674 54.7217 314.196 54.791 312.809 54.687ZM316.069 42.2398C316.35 42.2608 316.714 42.1079 317.162 41.7811C318.156 41.0566 318.942 40.1911 319.519 39.1845C320.097 38.1624 320.425 37.1216 320.505 36.0621C320.587 34.9714 320.367 33.9364 319.845 32.9571C319.324 31.9622 318.443 31.1754 317.201 30.5965C316.885 30.4317 316.633 30.3423 316.446 30.3283C316.29 30.3166 316.167 30.3936 316.076 30.5591C316.001 30.7258 315.947 31.0273 315.914 31.4636L315.858 32.2115C315.36 38.8491 315.431 42.1919 316.069 42.2398Z" fill="black"/>
</g>
<g filter="url(#filter3_d_208_23)">
<mask id="path-11-inside-4_208_23" fill="white">
<path d="M60 32.3252C60 25.6978 65.3726 20.3252 72 20.3252H112C118.627 20.3252 124 25.6978 124 32.3252V72.3252C124 78.9526 118.627 84.3252 112 84.3252H72C65.3726 84.3252 60 78.9526 60 72.3252V32.3252Z"/>
</mask>
<path d="M60 32.3252C60 25.6978 65.3726 20.3252 72 20.3252H112C118.627 20.3252 124 25.6978 124 32.3252V72.3252C124 78.9526 118.627 84.3252 112 84.3252H72C65.3726 84.3252 60 78.9526 60 72.3252V32.3252Z" fill="white"/>
<path d="M60 20.3252H124H60ZM124 72.3252C124 82.2663 115.941 90.3252 106 90.3252H78C68.0589 90.3252 60 82.2663 60 72.3252C60 75.6389 65.3726 78.3252 72 78.3252H112C118.627 78.3252 124 75.6389 124 72.3252ZM60 84.3252V20.3252V84.3252ZM124 20.3252V84.3252V20.3252Z" fill="#9F9D9D" mask="url(#path-11-inside-4_208_23)"/>
<path d="M101.164 69.3076C100.055 69.3076 98.9844 69.0811 97.9531 68.6279C96.9219 68.1748 96.1562 67.4482 95.6562 66.4482C94.6719 64.2139 93.6094 61.5498 92.4688 58.4561C92.2656 57.8154 92.0625 57.4951 91.8594 57.4951C91.6875 57.4951 91.4766 57.8701 91.2266 58.6201C90.0391 62.2764 89.1016 64.8545 88.4141 66.3545C87.9141 67.3545 87.1406 68.0811 86.0938 68.5342C85.0625 68.9873 83.9844 69.2139 82.8594 69.2139C81.7344 69.2139 80.7109 69.0107 79.7891 68.6045C78.8672 68.1982 78.2812 67.6357 78.0312 66.917C77.125 63.9326 76.2188 59.9873 75.3125 55.0811C74.4062 50.1592 73.9062 45.7451 73.8125 41.8389C73.8125 40.542 74.1172 39.4717 74.7266 38.6279C75.3359 37.7842 76.1094 37.1592 77.0469 36.7529C78 36.3311 78.9844 36.1201 80 36.1201C81.2969 36.1201 82.4766 36.4561 83.5391 37.1279C84.6016 37.7842 85.2422 38.7529 85.4609 40.0342C85.7422 42.1592 85.9141 43.8857 85.9766 45.2139C86.0234 46.0264 86.0703 46.6514 86.1172 47.0889C86.1797 47.5264 86.2891 47.7451 86.4453 47.7451C86.6172 47.7451 86.8906 47.4326 87.2656 46.8076C87.6562 46.1826 88.2031 45.1904 88.9062 43.8311C89.2188 43.2373 89.6406 42.7998 90.1719 42.5186C90.7188 42.2217 91.2891 42.0732 91.8828 42.0732C92.4609 42.0732 93.0156 42.2217 93.5469 42.5186C94.0938 42.7998 94.5234 43.2373 94.8359 43.8311C95.5547 45.2217 96.1016 46.2451 96.4766 46.9014C96.8672 47.542 97.1484 47.8623 97.3203 47.8623C97.4609 47.8623 97.5469 47.6514 97.5781 47.2295C97.625 46.792 97.6641 46.1748 97.6953 45.3779C97.7109 44.0498 97.8203 42.3154 98.0234 40.1748C98.2109 38.8467 98.8516 37.8389 99.9453 37.1514C101.039 36.4482 102.258 36.0967 103.602 36.0967C104.602 36.0967 105.562 36.2998 106.484 36.7061C107.406 37.0967 108.164 37.7139 108.758 38.5576C109.352 39.3857 109.672 40.4404 109.719 41.7217V42.4014C109.719 46.042 109.359 50.2373 108.641 54.9873C107.938 59.7373 107.164 63.6826 106.32 66.8232C106.086 67.5889 105.469 68.1982 104.469 68.6514C103.484 69.0889 102.383 69.3076 101.164 69.3076Z" fill="black"/>
</g>
<g filter="url(#filter4_d_208_23)">
<mask id="path-14-inside-5_208_23" fill="white">
<path d="M48.5597 79.1977C49.5231 72.6407 55.6197 68.1062 62.1767 69.0697L101.752 74.8848C108.309 75.8483 112.843 81.9449 111.88 88.5019L106.065 128.077C105.101 134.634 99.0046 139.168 92.4476 138.205L52.8725 132.39C46.3155 131.426 41.7811 125.33 42.7446 118.773L48.5597 79.1977Z"/>
</mask>
<path d="M48.5597 79.1977C49.5231 72.6407 55.6197 68.1062 62.1767 69.0697L101.752 74.8848C108.309 75.8483 112.843 81.9449 111.88 88.5019L106.065 128.077C105.101 134.634 99.0046 139.168 92.4476 138.205L52.8725 132.39C46.3155 131.426 41.7811 125.33 42.7446 118.773L48.5597 79.1977Z" fill="white"/>
<path d="M50.3042 67.3252L113.624 76.6294L50.3042 67.3252ZM106.065 128.077C104.619 137.912 95.4746 144.714 85.6391 143.269L57.9365 139.198C48.101 137.753 41.2993 128.608 42.7446 118.773C42.2628 122.051 47.1878 125.49 53.7448 126.454L93.3199 132.269C99.8769 133.232 105.583 131.355 106.065 128.077ZM41 130.645L50.3042 67.3252L41 130.645ZM113.624 76.6294L104.32 139.949L113.624 76.6294Z" fill="#9F9D9D" mask="url(#path-14-inside-5_208_23)"/>
<path d="M76.1527 120.394L75.5266 120.302C73.0996 119.946 71.0421 119.17 69.3542 117.974C67.6841 116.765 66.3531 115.291 65.3613 113.55C64.3871 111.796 63.7417 109.901 63.4251 107.864C63.1106 105.812 63.1034 103.766 63.4032 101.725C63.703 99.6849 64.2975 97.735 65.1866 95.8757C66.078 94.001 67.2413 92.3716 68.6765 90.9874C70.1272 89.6055 71.8328 88.5848 73.7933 87.9253C75.7537 87.2658 77.9475 87.1144 80.3745 87.471C82.4747 87.7954 84.3748 88.4062 86.0749 89.3035C87.7905 90.2031 89.1296 91.3001 90.0923 92.5944C91.055 93.8887 91.4262 95.2857 91.2058 96.7852L91.1002 97.504C90.8935 98.9108 90.1453 100.08 88.8555 101.012C87.5811 101.946 86.1247 102.293 84.486 102.052C83.7903 101.95 83.0665 101.717 82.3144 101.354C80.7089 100.565 79.3032 100.082 78.0974 99.9048C76.938 99.7345 75.9577 99.7958 75.1566 100.089C74.3556 100.382 73.7295 100.827 73.2786 101.424C72.8431 102.023 72.5708 102.694 72.4618 103.436C72.3414 104.255 72.4242 105.088 72.7103 105.936C73.0119 106.785 73.5039 107.521 74.1864 108.143C74.8867 108.751 75.7624 109.132 76.8136 109.287C78.6996 109.564 80.8365 108.993 83.2243 107.575C84.4777 106.891 85.5295 106.611 86.3798 106.736C87.1837 106.854 87.8484 107.22 88.3741 107.835C88.8998 108.449 89.2702 109.206 89.4853 110.106C89.716 111.009 89.7586 111.955 89.6132 112.944C89.4633 113.964 89.0924 114.984 88.5005 116.002C87.9264 117.008 87.0931 117.896 86.0006 118.667C84.9236 119.441 83.5701 120 81.9402 120.345C80.3125 120.674 78.3834 120.691 76.1527 120.394Z" fill="black"/>
</g>
<g filter="url(#filter5_d_208_23)">
<mask id="path-17-inside-6_208_23" fill="white">
<path d="M122.977 94.4968C122.438 87.8914 127.355 82.0991 133.96 81.5594L173.827 78.3022C180.433 77.7625 186.225 82.6797 186.765 89.2851L190.022 129.152C190.562 135.758 185.644 141.55 179.039 142.09L139.172 145.347C132.566 145.887 126.774 140.969 126.234 134.364L122.977 94.4968Z"/>
</mask>
<path d="M122.977 94.4968C122.438 87.8914 127.355 82.0991 133.96 81.5594L173.827 78.3022C180.433 77.7625 186.225 82.6797 186.765 89.2851L190.022 129.152C190.562 135.758 185.644 141.55 179.039 142.09L139.172 145.347C132.566 145.887 126.774 140.969 126.234 134.364L122.977 94.4968Z" fill="white"/>
<path d="M122 82.5366L185.787 77.325L122 82.5366ZM190.022 129.152C190.831 139.06 183.456 147.749 173.547 148.558L145.64 150.838C135.732 151.648 127.044 144.272 126.234 134.364C126.504 137.667 132.078 139.906 138.683 139.367L178.55 136.11C185.156 135.57 190.292 132.455 190.022 129.152ZM127.212 146.324L122 82.5366L127.212 146.324ZM185.787 77.325L190.999 141.112L185.787 77.325Z" fill="#9F9D9D" mask="url(#path-17-inside-6_208_23)"/>
<path d="M157.49 128.547C155.154 128.738 152.856 128.338 150.596 127.347C148.351 126.354 146.433 124.755 144.842 122.549C143.251 120.344 142.22 117.512 141.749 114.054L141.634 112.935C141.412 110.21 141.623 107.802 142.267 105.711C142.926 103.604 143.877 101.817 145.121 100.351C146.381 98.8846 147.84 97.7464 149.498 96.9368C151.157 96.1272 152.889 95.6486 154.696 95.501C156.502 95.3534 158.298 95.5516 160.082 96.0956C161.881 96.6227 163.521 97.5077 165.002 98.7506C166.498 99.9766 167.74 101.56 168.73 103.502C169.719 105.443 170.323 107.746 170.54 110.409C170.596 111.094 170.623 111.805 170.62 112.542C170.579 115.869 169.939 118.688 168.701 121C167.479 123.31 165.87 125.103 163.873 126.38C161.876 127.64 159.748 128.363 157.49 128.547ZM156.45 112.947C157.213 112.885 157.739 112.505 158.027 111.807C158.313 111.094 158.421 110.301 158.35 109.429C158.262 108.355 157.972 107.391 157.479 106.538C157.001 105.683 156.385 105.247 155.632 105.231C154.946 105.286 154.415 105.785 154.037 106.725C153.675 107.664 153.536 108.647 153.62 109.675C153.69 110.531 153.931 111.28 154.344 111.92C154.809 112.619 155.511 112.961 156.45 112.947Z" fill="black"/>
</g>
<g filter="url(#filter6_d_208_23)">
<mask id="path-20-inside-7_208_23" fill="white">
<path d="M206.441 93.1648C207.146 86.575 213.06 81.8046 219.65 82.5098L259.423 86.7662C266.012 87.4714 270.783 93.3852 270.078 99.9749L265.821 139.748C265.116 146.338 259.202 151.108 252.612 150.403L212.839 146.146C206.25 145.441 201.479 139.527 202.185 132.938L206.441 93.1648Z"/>
</mask>
<path d="M206.441 93.1648C207.146 86.575 213.06 81.8046 219.65 82.5098L259.423 86.7662C266.012 87.4714 270.783 93.3852 270.078 99.9749L265.821 139.748C265.116 146.338 259.202 151.108 252.612 150.403L212.839 146.146C206.25 145.441 201.479 139.527 202.185 132.938L206.441 93.1648Z" fill="white"/>
<path d="M207.718 81.2329L271.354 88.0431L207.718 81.2329ZM265.821 139.748C264.763 149.633 255.893 156.788 246.008 155.73L218.167 152.751C208.282 151.693 201.127 142.822 202.185 132.938C201.832 136.233 206.888 139.475 213.478 140.181L253.251 144.437C259.841 145.142 265.469 143.043 265.821 139.748ZM200.908 144.87L207.718 81.2329L200.908 144.87ZM271.354 88.0431L264.544 151.68L271.354 88.0431Z" fill="#9F9D9D" mask="url(#path-20-inside-7_208_23)"/>
<path d="M228.099 132.7C226.794 132.56 225.627 132.16 224.598 131.5C223.568 130.84 223.009 130.049 222.919 129.128C222.719 124.094 222.938 118.594 223.576 112.628C223.919 109.428 224.379 106.523 224.957 103.913C225.448 102.111 226.652 100.849 228.568 100.127C230.499 99.4068 232.677 99.1762 235.1 99.4356C237.415 99.6833 239.702 100.344 241.959 101.419C244.217 102.493 246.059 103.932 247.485 105.735C249.02 107.69 249.683 110.008 249.475 112.689C249.302 114.305 248.733 115.807 247.767 117.197C246.818 118.572 245.492 119.656 243.789 120.448C245.213 122.266 246.598 124.151 247.945 126.102C248.496 126.978 248.728 127.813 248.644 128.605C248.532 129.646 248 130.579 247.048 131.404C246.111 132.231 245.021 132.869 243.779 133.317C242.538 133.75 241.421 133.913 240.426 133.807C239.416 133.699 238.726 133.319 238.356 132.666L235.486 127.55C235.086 126.879 234.801 126.534 234.63 126.516C234.428 126.494 234.292 126.81 234.222 127.462L234.124 128.607C233.973 129.722 233.597 130.593 232.995 131.22C232.394 131.847 231.656 132.279 230.782 132.516C229.91 132.736 229.016 132.798 228.099 132.7ZM236.299 112.905C236.851 112.886 237.293 112.642 237.626 112.175C237.961 111.692 238.16 111.148 238.225 110.542C238.287 109.967 238.21 109.44 237.994 108.962C237.795 108.469 237.432 108.194 236.903 108.138C236.732 108.12 236.592 108.183 236.482 108.328C236.374 108.458 236.297 108.741 236.25 109.176L235.961 111.879C235.891 112.532 236.004 112.874 236.299 112.905Z" fill="black"/>
</g>
<g filter="url(#filter7_d_208_23)">
<mask id="path-23-inside-8_208_23" fill="white">
<path d="M283.855 91.9941C283.622 85.3707 288.803 79.8132 295.427 79.581L335.402 78.1796C342.026 77.9474 347.583 83.1285 347.815 89.7518L349.217 129.727C349.449 136.351 344.268 141.908 337.644 142.14L297.669 143.542C291.046 143.774 285.488 138.593 285.256 131.97L283.855 91.9941Z"/>
</mask>
<path d="M283.855 91.9941C283.622 85.3707 288.803 79.8132 295.427 79.581L335.402 78.1796C342.026 77.9474 347.583 83.1285 347.815 89.7518L349.217 129.727C349.449 136.351 344.268 141.908 337.644 142.14L297.669 143.542C291.046 143.774 285.488 138.593 285.256 131.97L283.855 91.9941Z" fill="white"/>
<path d="M283.434 80.0015L347.395 77.7592L283.434 80.0015ZM349.217 129.727C349.565 139.662 341.793 147.999 331.858 148.347L303.876 149.328C293.94 149.676 285.604 141.905 285.256 131.97C285.372 135.281 290.835 137.778 297.459 137.545L337.434 136.144C344.058 135.912 349.333 133.039 349.217 129.727ZM285.676 143.962L283.434 80.0015L285.676 143.962ZM347.395 77.7592L349.637 141.72L347.395 77.7592Z" fill="#9F9D9D" mask="url(#path-23-inside-8_208_23)"/>
<path d="M313.107 128.114C311.42 128.173 309.96 127.982 308.725 127.541C307.505 127.099 306.732 126.454 306.405 125.605C305.674 123.473 305.096 121.031 304.671 118.279C304.246 115.526 303.983 112.706 303.882 109.817C303.737 105.679 303.96 101.786 304.551 98.1376C304.781 97.0977 305.525 96.2664 306.786 95.6438C308.046 95.0211 309.582 94.678 311.393 94.6145C312.83 94.5641 314.351 94.714 315.958 95.0642C317.58 95.3982 319.156 95.9762 320.686 96.7981C322.231 97.6038 323.636 98.6724 324.903 100.004C326.169 101.335 327.202 102.949 328.004 104.844C328.805 106.738 329.25 108.959 329.339 111.504C329.422 113.846 329.134 115.912 328.478 117.702C327.837 119.491 326.945 121.039 325.803 122.345C324.66 123.636 323.368 124.698 321.928 125.53C320.503 126.362 319.024 126.992 317.491 127.421C315.958 127.834 314.496 128.065 313.107 128.114ZM314.982 115.384C315.263 115.374 315.608 115.183 316.017 114.809C316.926 113.979 317.612 113.033 318.075 111.969C318.538 110.89 318.75 109.819 318.713 108.757C318.675 107.664 318.343 106.66 317.716 105.744C317.09 104.812 316.128 104.126 314.83 103.687C314.497 103.558 314.237 103.497 314.05 103.503C313.894 103.509 313.779 103.599 313.707 103.773C313.651 103.947 313.63 104.253 313.646 104.69L313.672 105.44C313.905 112.092 314.342 115.407 314.982 115.384Z" fill="black"/>
</g>
<defs>
<filter id="filter0_d_208_23" x="128.677" y="10.0024" width="77.2017" height="77.2017" filterUnits="userSpaceOnUse" color-interpolation-filters="sRGB">
<feFlood flood-opacity="0" result="BackgroundImageFix"/>
<feColorMatrix in="SourceAlpha" type="matrix" values="0 0 0 0 0 0 0 0 0 0 0 0 0 0 0 0 0 0 127 0" result="hardAlpha"/>
<feMorphology radius="2" operator="dilate" in="SourceAlpha" result="effect1_dropShadow_208_23"/>
<feOffset/>
<feComposite in2="hardAlpha" operator="out"/>
<feColorMatrix type="matrix" values="0 0 0 0 0 0 0 0 0 0 0 0 0 0 0 0 0 0 1 0"/>
<feBlend mode="normal" in2="BackgroundImageFix" result="effect1_dropShadow_208_23"/>
<feBlend mode="normal" in="SourceGraphic" in2="effect1_dropShadow_208_23" result="shape"/>
</filter>
<filter id="filter1_d_208_23" x="206" y="20.3252" width="74.594" height="75.5273" filterUnits="userSpaceOnUse" color-interpolation-filters="sRGB">
<feFlood flood-opacity="0" result="BackgroundImageFix"/>
<feColorMatrix in="SourceAlpha" type="matrix" values="0 0 0 0 0 0 0 0 0 0 0 0 0 0 0 0 0 0 127 0" result="hardAlpha"/>
<feMorphology radius="2" operator="dilate" in="SourceAlpha" result="effect1_dropShadow_208_23"/>
<feOffset/>
<feComposite in2="hardAlpha" operator="out"/>
<feColorMatrix type="matrix" values="0 0 0 0 0 0 0 0 0 0 0 0 0 0 0 0 0 0 1 0"/>
<feBlend mode="normal" in2="BackgroundImageFix" result="effect1_dropShadow_208_23"/>
<feBlend mode="normal" in="SourceGraphic" in2="effect1_dropShadow_208_23" result="shape"/>
</filter>
<filter id="filter2_d_208_23" x="280.669" y="0" width="75.2556" height="76.1777" filterUnits="userSpaceOnUse" color-interpolation-filters="sRGB">
<feFlood flood-opacity="0" result="BackgroundImageFix"/>
<feColorMatrix in="SourceAlpha" type="matrix" values="0 0 0 0 0 0 0 0 0 0 0 0 0 0 0 0 0 0 127 0" result="hardAlpha"/>
<feMorphology radius="2" operator="dilate" in="SourceAlpha" result="effect1_dropShadow_208_23"/>
<feOffset/>
<feComposite in2="hardAlpha" operator="out"/>
<feColorMatrix type="matrix" values="0 0 0 0 0 0 0 0 0 0 0 0 0 0 0 0 0 0 1 0"/>
<feBlend mode="normal" in2="BackgroundImageFix" result="effect1_dropShadow_208_23"/>
<feBlend mode="normal" in="SourceGraphic" in2="effect1_dropShadow_208_23" result="shape"/>
</filter>
<filter id="filter3_d_208_23" x="58" y="18.3252" width="68" height="68" filterUnits="userSpaceOnUse" color-interpolation-filters="sRGB">
<feFlood flood-opacity="0" result="BackgroundImageFix"/>
<feColorMatrix in="SourceAlpha" type="matrix" values="0 0 0 0 0 0 0 0 0 0 0 0 0 0 0 0 0 0 127 0" result="hardAlpha"/>
<feMorphology radius="2" operator="dilate" in="SourceAlpha" result="effect1_dropShadow_208_23"/>
<feOffset/>
<feComposite in2="hardAlpha" operator="out"/>
<feColorMatrix type="matrix" values="0 0 0 0 0 0 0 0 0 0 0 0 0 0 0 0 0 0 1 0"/>
<feBlend mode="normal" in2="BackgroundImageFix" result="effect1_dropShadow_208_23"/>
<feBlend mode="normal" in="SourceGraphic" in2="effect1_dropShadow_208_23" result="shape"/>
</filter>
<filter id="filter4_d_208_23" x="39" y="65.3252" width="76.6243" height="76.624" filterUnits="userSpaceOnUse" color-interpolation-filters="sRGB">
<feFlood flood-opacity="0" result="BackgroundImageFix"/>
<feColorMatrix in="SourceAlpha" type="matrix" values="0 0 0 0 0 0 0 0 0 0 0 0 0 0 0 0 0 0 127 0" result="hardAlpha"/>
<feMorphology radius="2" operator="dilate" in="SourceAlpha" result="effect1_dropShadow_208_23"/>
<feOffset/>
<feComposite in2="hardAlpha" operator="out"/>
<feColorMatrix type="matrix" values="0 0 0 0 0 0 0 0 0 0 0 0 0 0 0 0 0 0 1 0"/>
<feBlend mode="normal" in2="BackgroundImageFix" result="effect1_dropShadow_208_23"/>
<feBlend mode="normal" in="SourceGraphic" in2="effect1_dropShadow_208_23" result="shape"/>
</filter>
<filter id="filter5_d_208_23" x="120" y="75.3252" width="72.999" height="72.999" filterUnits="userSpaceOnUse" color-interpolation-filters="sRGB">
<feFlood flood-opacity="0" result="BackgroundImageFix"/>
<feColorMatrix in="SourceAlpha" type="matrix" values="0 0 0 0 0 0 0 0 0 0 0 0 0 0 0 0 0 0 127 0" result="hardAlpha"/>
<feMorphology radius="2" operator="dilate" in="SourceAlpha" result="effect1_dropShadow_208_23"/>
<feOffset/>
<feComposite in2="hardAlpha" operator="out"/>
<feColorMatrix type="matrix" values="0 0 0 0 0 0 0 0 0 0 0 0 0 0 0 0 0 0 1 0"/>
<feBlend mode="normal" in2="BackgroundImageFix" result="effect1_dropShadow_208_23"/>
<feBlend mode="normal" in="SourceGraphic" in2="effect1_dropShadow_208_23" result="shape"/>
</filter>
<filter id="filter6_d_208_23" x="198.908" y="79.2329" width="74.4468" height="74.4468" filterUnits="userSpaceOnUse" color-interpolation-filters="sRGB">
<feFlood flood-opacity="0" result="BackgroundImageFix"/>
<feColorMatrix in="SourceAlpha" type="matrix" values="0 0 0 0 0 0 0 0 0 0 0 0 0 0 0 0 0 0 127 0" result="hardAlpha"/>
<feMorphology radius="2" operator="dilate" in="SourceAlpha" result="effect1_dropShadow_208_23"/>
<feOffset/>
<feComposite in2="hardAlpha" operator="out"/>
<feColorMatrix type="matrix" values="0 0 0 0 0 0 0 0 0 0 0 0 0 0 0 0 0 0 1 0"/>
<feBlend mode="normal" in2="BackgroundImageFix" result="effect1_dropShadow_208_23"/>
<feBlend mode="normal" in="SourceGraphic" in2="effect1_dropShadow_208_23" result="shape"/>
</filter>
<filter id="filter7_d_208_23" x="281.434" y="75.7593" width="70.2029" height="70.2031" filterUnits="userSpaceOnUse" color-interpolation-filters="sRGB">
<feFlood flood-opacity="0" result="BackgroundImageFix"/>
<feColorMatrix in="SourceAlpha" type="matrix" values="0 0 0 0 0 0 0 0 0 0 0 0 0 0 0 0 0 0 127 0" result="hardAlpha"/>
<feMorphology radius="2" operator="dilate" in="SourceAlpha" result="effect1_dropShadow_208_23"/>
<feOffset/>
<feComposite in2="hardAlpha" operator="out"/>
<feColorMatrix type="matrix" values="0 0 0 0 0 0 0 0 0 0 0 0 0 0 0 0 0 0 1 0"/>
<feBlend mode="normal" in2="BackgroundImageFix" result="effect1_dropShadow_208_23"/>
<feBlend mode="normal" in="SourceGraphic" in2="effect1_dropShadow_208_23" result="shape"/>
</filter>
</defs>
</svg>
