<svg width="148" height="114" viewBox="0 0 148 114" fill="none" xmlns="http://www.w3.org/2000/svg">
<path d="M90 36.4832C90 36.9592 90.2293 37.5586 90.3585 38.0133C90.7104 39.2516 91.0108 40.5039 91.3571 41.7445C91.418 41.9625 91.5291 41.9277 91.754 41.9458C94.3081 42.1518 96.8828 42.14 99.4422 42.1538C104.285 42.1801 109.125 42.0398 113.967 42.0398C115.029 42.0398 115.967 42.941 117.11 42.9994C118.17 43.0536 117.872 39.3179 117.91 38.5233C117.951 37.6797 118 36.8447 118 36" stroke="black" stroke-width="5" stroke-linecap="round"/>
<path d="M92 28.2591C92.0552 26.3812 92.6056 24.4924 93.0239 22.6726C93.3627 21.199 93.7273 19.7389 94.0253 18.2563C94.0937 17.916 94.1899 17.2645 94.4866 17.0073C94.7635 16.7674 97.8806 22.4882 98.0535 22.8245C98.8969 24.4652 99.6983 26.1255 100.523 27.7753C100.725 28.1783 100.906 28.5574 101.215 28.8667" stroke="black" stroke-width="4" stroke-linecap="round"/>
<path d="M106.987 28.1578C107.524 27.7909 107.649 26.9668 107.82 26.3913C108.326 24.6905 108.788 22.9744 109.395 21.3055C109.843 20.0749 110.433 18.8472 110.987 17.6768C111.015 17.6177 111.195 17.205 111.297 17.2605C111.456 17.3473 111.642 17.9567 111.679 18.0425C112.053 18.9056 112.457 19.7497 112.878 20.591C113.932 22.6994 115.253 24.904 116 27.1452" stroke="black" stroke-width="4" stroke-linecap="round"/>
<path d="M13.9562 81.3854C11.1611 82.4207 8.8814 86.059 7.41453 88.3269C2.80121 95.4593 -0.701325 107.377 10.3038 110.514C19.2343 113.06 26.541 106.932 29.0748 98.5756C30.9136 92.5118 31.4153 84.53 24.0414 82.185C20.657 81.1087 18.0565 82.3095 14.9375 83.0209" stroke="black" stroke-width="5" stroke-linecap="round"/>
<path d="M46.6695 60C45.8277 60.0935 45.1556 61.359 44.816 61.8898C41.8133 66.5843 33.7592 81.7764 45.343 81.3151C52.4697 81.0312 60.2232 73.9771 60.4798 66.6144C60.7238 59.6118 51.6589 60.7379 47.3237 61.3083" stroke="black" stroke-width="5" stroke-linecap="round"/>
<path d="M74.467 26.8901C72.8681 27.3216 71.0708 31.5468 70.5982 32.5033C67.4896 38.7944 65.1793 46.7626 67.6071 53.6854C69.7844 59.8937 74.8119 58.4151 79.6037 56.0014C82.6443 54.4698 85.8398 52.8979 87.1788 49.6805C87.3129 49.3582 87.344 49.3455 87.1138 49.1176C86.5618 48.5715 86.6956 50.6085 86.5611 51.3693C85.7559 55.9217 84.5893 62.1739 86.431 66.6166C89.0355 72.8993 100.211 65.0558 102.687 62.5635C104.854 60.3816 107.876 56.8337 108.376 53.621C108.408 53.4159 108.499 52.9132 108.343 52.7203C106.001 49.8233 113.268 58.7354 116.748 60.1188C120.754 61.7118 125.011 58.6095 127.752 55.9692C129.488 54.2974 133.057 49.7197 131.507 46.9946C131.037 46.1677 129.981 45.7245 129.199 45.338C128.746 45.1138 128.283 44.909 127.818 44.7107C127.449 44.5538 126.429 44.6345 126.68 44.3247C126.754 44.2325 126.919 44.3276 127.037 44.3086C128.334 44.0998 129.008 43.8517 130.37 43.231C134.342 41.4206 138.26 39.0334 141.537 36.1543C144.691 33.3839 145.352 29.9483 143.764 26.102C142.703 23.53 140.557 21.5261 137.928 20.5854C137.403 20.3974 136.654 20.1435 136.075 20.2476C135.624 20.3288 135.302 20.8076 135.588 19.942C136.737 16.4559 137.525 12.2693 135.36 8.94085C132.366 4.337 125.147 3.35994 120.112 3.56894C118.722 3.62664 116.828 3.89459 115.723 4.88779C115.619 4.9817 115.387 5.68765 115.366 5.69197C115.165 5.73383 114.492 5.43612 114.488 5.43463C111.939 4.56815 109.354 3.96079 106.685 3.55285C102.533 2.91807 97.9375 2.38019 94.1686 4.63045C93.2796 5.16125 91.457 7.15274 92.4618 8.34576C92.8238 8.7756 91.9052 8.59895 91.7303 8.58701C87.2014 8.27798 82.6722 8.11062 78.157 8.73176C75.2642 9.12971 71.415 9.64653 71.3459 13.2834C71.248 18.4371 74.4805 22.4099 77.9782 25.7321" stroke="black" stroke-width="5" stroke-linecap="round"/>
</svg>
